<?xml version="1.0" encoding="UTF-8" standalone="no"?>
<!DOCTYPE svg PUBLIC "-//W3C//DTD SVG 1.1//EN"
 "http://www.w3.org/Graphics/SVG/1.1/DTD/svg11.dtd">
<!-- Generated by graphviz version 2.40.1 (20161225.0304)
 -->
<!-- Title: %0 Pages: 1 -->
<svg width="2274pt" height="894pt"
 viewBox="0.00 0.00 2274.02 894.00" xmlns="http://www.w3.org/2000/svg" xmlns:xlink="http://www.w3.org/1999/xlink">
<g id="graph0" class="graph" transform="scale(1 1) rotate(0) translate(4 890)">
<title>%0</title>
<polygon fill="#ffffff" stroke="transparent" points="-4,4 -4,-890 2270.0232,-890 2270.0232,4 -4,4"/>
<!-- Resource -->
<g id="node1" class="node">
<title>Resource</title>
<polygon fill="none" stroke="#000000" points="75.1271,-482 6.9557,-482 6.9557,-446 75.1271,-446 75.1271,-482"/>
<text text-anchor="middle" x="41.0414" y="-459.8" font-family="Times,serif" font-size="14.00" fill="#000000">Resource</text>
</g>
<!-- commonioResource -->
<g id="node2" class="node">
<title>commonioResource</title>
<polygon fill="none" stroke="#000000" points="270.9062,-536 142.9622,-536 142.9622,-500 270.9062,-500 270.9062,-536"/>
<text text-anchor="middle" x="206.9342" y="-513.8" font-family="Times,serif" font-size="14.00" fill="#000000">commonioResource</text>
</g>
<!-- Resource&#45;&gt;commonioResource -->
<g id="edge1" class="edge">
<title>Resource&#45;&gt;commonioResource</title>
<polygon fill="#000000" stroke="transparent" points="75.2856,-476.8786 77.2982,-477.572 79.3395,-478.2735 81.4067,-478.982 83.4972,-479.6966 85.6085,-480.4163 87.738,-481.14 89.8832,-481.8668 92.0416,-482.5957 94.2105,-483.3257 96.3875,-484.0557 98.5699,-484.7849 100.7552,-485.5121 102.9409,-486.2364 105.1244,-486.9569 107.3032,-487.6724 109.4747,-488.3821 111.6362,-489.0849 113.7854,-489.7798 115.9196,-490.4659 118.0363,-491.1421 118.9304,-491.4264 119.8279,-491.7112 120.7287,-491.9963 121.6325,-492.2817 122.5393,-492.5674 123.4488,-492.8533 124.361,-493.1394 125.2757,-493.4257 126.1927,-493.7121 127.1118,-493.9985 128.033,-494.285 128.956,-494.5716 129.8806,-494.858 130.8069,-495.1444 131.7345,-495.4307 132.6633,-495.7169 133.5932,-496.0028 134.524,-496.2885 135.4556,-496.5739 136.3878,-496.8591 136.3878,-496.8591 135.4602,-496.5595 134.5331,-496.2596 133.6069,-495.9594 132.6816,-495.6591 131.7574,-495.3585 130.8344,-495.0579 129.9127,-494.7571 128.9927,-494.4563 128.0743,-494.1555 127.1578,-493.8547 126.2433,-493.554 125.331,-493.2534 124.421,-492.953 123.5135,-492.6527 122.6086,-492.3528 121.7066,-492.0531 120.8074,-491.7537 119.9114,-491.4547 119.0186,-491.1561 118.1293,-490.8579 116.0239,-490.149 113.9012,-489.4301 111.7637,-488.702 109.6139,-487.9659 107.4544,-487.2227 105.2877,-486.4736 103.1163,-485.7195 100.9428,-484.9615 98.7698,-484.2006 96.5996,-483.4378 94.435,-482.6742 92.2784,-481.9109 90.1323,-481.1488 87.9994,-480.3889 85.8821,-479.6324 83.7829,-478.8802 81.7045,-478.1334 79.6493,-477.3931 77.6199,-476.6602 75.6187,-475.9357 75.2856,-476.8786"/>
<polygon fill="#000000" stroke="#000000" points="135.5387,-500.2604 146.1272,-499.8936 137.621,-493.5773 135.5387,-500.2604"/>
</g>
<!-- settingsLocation -->
<g id="node3" class="node">
<title>settingsLocation</title>
<polygon fill="none" stroke="#000000" points="260.9738,-482 152.8946,-482 152.8946,-446 260.9738,-446 260.9738,-482"/>
<text text-anchor="middle" x="206.9342" y="-459.8" font-family="Times,serif" font-size="14.00" fill="#000000">settingsLocation</text>
</g>
<!-- Resource&#45;&gt;settingsLocation -->
<g id="edge2" class="edge">
<title>Resource&#45;&gt;settingsLocation</title>
<path fill="none" stroke="#000000" stroke-width="2" d="M75.4145,-464C94.8421,-464 119.7587,-464 142.6695,-464"/>
<polygon fill="#000000" stroke="#000000" stroke-width="2" points="142.6847,-467.5001 152.6847,-464 142.6846,-460.5001 142.6847,-467.5001"/>
</g>
<!-- setttingsFormats -->
<g id="node4" class="node">
<title>setttingsFormats</title>
<polygon fill="none" stroke="#000000" points="260.9849,-428 152.8835,-428 152.8835,-392 260.9849,-392 260.9849,-428"/>
<text text-anchor="middle" x="206.9342" y="-405.8" font-family="Times,serif" font-size="14.00" fill="#000000">setttingsFormats</text>
</g>
<!-- Resource&#45;&gt;setttingsFormats -->
<g id="edge3" class="edge">
<title>Resource&#45;&gt;setttingsFormats</title>
<path fill="none" stroke="#000000" stroke-width="2" d="M75.4522,-451.5929C88.7314,-446.8964 104.0731,-441.5813 118.0828,-437 126.1229,-434.3708 134.5996,-431.6852 142.9963,-429.0767"/>
<polygon fill="#000000" stroke="#000000" stroke-width="2" points="144.2609,-432.3494 152.7855,-426.0579 142.1981,-425.6602 144.2609,-432.3494"/>
</g>
<!-- TheSequence -->
<g id="node5" class="node">
<title>TheSequence</title>
<polygon fill="none" stroke="#000000" points="1470.7609,-128 1378.9427,-128 1378.9427,-92 1470.7609,-92 1470.7609,-128"/>
<text text-anchor="middle" x="1424.8518" y="-105.8" font-family="Times,serif" font-size="14.00" fill="#000000">TheSequence</text>
</g>
<!-- BaseModel -->
<g id="node6" class="node">
<title>BaseModel</title>
<polygon fill="none" stroke="#000000" points="2265.9037,-412 2186.3825,-412 2186.3825,-376 2265.9037,-376 2265.9037,-412"/>
<text text-anchor="middle" x="2226.1431" y="-389.8" font-family="Times,serif" font-size="14.00" fill="#000000">BaseModel</text>
</g>
<!-- TheSequence&#45;&gt;BaseModel -->
<g id="edge4" class="edge">
<title>TheSequence&#45;&gt;BaseModel</title>
<polygon fill="#000000" stroke="transparent" points="1470.7036,-105.4585 1494.14,-103.1008 1521.4492,-100.5179 1552.172,-97.8156 1585.8474,-95.0996 1622.0148,-92.4758 1660.2133,-90.05 1699.9821,-87.9281 1740.8605,-86.2157 1782.3876,-85.0187 1824.1026,-84.443 1865.5447,-84.5942 1906.2531,-85.5783 1945.7667,-87.5008 1983.6248,-90.4677 2019.3662,-94.5845 2052.53,-99.9569 2082.6548,-106.6903 2109.2793,-114.8896 2131.9418,-124.6595 2150.1828,-136.1039 2155.59,-141.1745 2160.8326,-147.7797 2165.9048,-155.7765 2170.8012,-165.0211 2175.5171,-175.3699 2180.0486,-186.6791 2184.3915,-198.8053 2188.542,-211.6052 2192.4965,-224.9353 2196.2512,-238.6525 2199.8023,-252.6135 2203.1462,-266.675 2206.2792,-280.694 2209.1976,-294.5272 2211.8978,-308.0313 2214.3761,-321.0634 2216.6288,-333.4801 2218.6522,-345.1383 2220.4428,-355.8949 2221.9968,-365.6067 2221.9968,-365.6067 2220.4532,-355.8932 2218.6742,-345.1346 2216.6632,-333.474 2214.4237,-321.0545 2211.9594,-308.0194 2209.2735,-294.5116 2206.3697,-280.6744 2203.2515,-266.6508 2199.9223,-252.584 2196.3856,-238.6171 2192.6449,-224.8931 2188.7037,-211.5551 2184.5654,-198.7461 2180.2333,-186.6092 2175.7108,-175.2871 2171.0012,-164.9228 2166.1074,-155.659 2161.032,-147.6381 2155.7769,-141.0026 2150.3432,-135.8961 2132.0746,-124.4071 2109.387,-114.5976 2082.7424,-106.3607 2052.6009,-99.5896 2019.4227,-94.1784 1983.6682,-90.0212 1945.798,-87.0125 1906.2727,-85.0468 1865.5531,-84.0188 1824.0998,-83.823 1782.3738,-84.3541 1740.8358,-85.5068 1699.9467,-87.1757 1660.1673,-89.2554 1621.9584,-91.6407 1585.781,-94.2262 1552.0958,-96.9065 1521.3638,-99.5765 1494.0458,-102.1306 1470.6041,-104.4635 1470.7036,-105.4585"/>
<polygon fill="#000000" stroke="#000000" points="2218.567,-366.332 2223.5398,-375.6873 2225.4864,-365.2728 2218.567,-366.332"/>
</g>
<!-- TheSequenceVariants -->
<g id="node7" class="node">
<title>TheSequenceVariants</title>
<polygon fill="none" stroke="#000000" points="1081.8393,-610 943.1783,-610 943.1783,-574 1081.8393,-574 1081.8393,-610"/>
<text text-anchor="middle" x="1012.5088" y="-587.8" font-family="Times,serif" font-size="14.00" fill="#000000">TheSequenceVariants</text>
</g>
<!-- TheSequenceVariants&#45;&gt;BaseModel -->
<g id="edge5" class="edge">
<title>TheSequenceVariants&#45;&gt;BaseModel</title>
<polygon fill="#000000" stroke="transparent" points="1082.1616,-594.6753 1094.8859,-595.0331 1108.4257,-595.4035 1122.7222,-595.783 1137.7169,-596.1684 1153.3514,-596.5562 1169.5671,-596.943 1186.3055,-597.3255 1203.5081,-597.7002 1221.1164,-598.0638 1239.0719,-598.413 1257.3162,-598.7442 1275.7906,-599.0542 1294.4366,-599.3395 1313.1959,-599.5968 1332.0098,-599.8226 1350.8199,-600.0137 1369.5676,-600.1666 1388.1945,-600.2779 1406.6421,-600.3443 1424.8515,-600.3623 1424.9027,-600.3623 1425.2587,-600.3622 1426.2249,-600.3618 1428.1066,-600.361 1431.2089,-600.3598 1435.8368,-600.3579 1442.2956,-600.3553 1450.8904,-600.3519 1461.9263,-600.3474 1475.7084,-600.3419 1492.542,-600.3351 1512.732,-600.327 1536.5838,-600.3174 1564.4023,-600.3063 1596.4929,-600.2934 1633.1605,-600.2786 1674.7103,-600.2619 1721.4476,-600.2432 1773.6773,-600.2222 1831.703,-600.1989 1852.4642,-600.5423 1872.108,-601.4977 1890.7377,-602.9273 1908.4544,-604.6931 1925.3596,-606.6572 1941.5544,-608.6816 1957.1402,-610.6285 1972.218,-612.3597 1986.8892,-613.7372 2001.2548,-614.623 2015.4158,-614.8788 2029.4732,-614.3664 2043.5278,-612.9477 2057.6805,-610.4847 2072.0319,-606.8393 2086.6828,-601.8737 2101.7341,-595.4501 2117.287,-587.4308 2133.4425,-577.6778 2150.3023,-566.0532 2157.152,-560.6301 2163.5826,-554.7207 2169.607,-548.3752 2175.2381,-541.6438 2180.4889,-534.5764 2185.3725,-527.223 2189.9018,-519.6335 2194.0898,-511.8579 2197.9494,-503.9462 2201.4937,-495.9482 2204.7356,-487.914 2207.688,-479.8936 2210.364,-471.9367 2212.7763,-464.0935 2214.938,-456.4139 2216.8621,-448.9477 2218.5614,-441.745 2220.0488,-434.8558 2221.3374,-428.33 2222.44,-422.2175 2222.44,-422.2175 2221.3325,-428.329 2220.0387,-434.8537 2218.5458,-441.7415 2216.8408,-448.9424 2214.9109,-456.4065 2212.7432,-464.0837 2210.3248,-471.9241 2207.6429,-479.8776 2204.6845,-487.8943 2201.4369,-495.9241 2197.8871,-503.9171 2194.0223,-511.8233 2189.8297,-519.5925 2185.2964,-527.175 2180.4095,-534.5205 2175.1563,-541.5793 2169.524,-548.3012 2163.4997,-554.6363 2157.0706,-560.5347 2150.2237,-565.9468 2133.3619,-577.5528 2117.2071,-587.2876 2101.6584,-595.289 2086.6146,-601.6951 2071.9741,-606.644 2057.6355,-610.2739 2043.497,-612.7228 2029.457,-614.1285 2015.4136,-614.6291 2001.2653,-614.3622 1986.9104,-613.4655 1972.2476,-612.0769 1957.1756,-610.3341 1941.5929,-608.3749 1925.3983,-606.3373 1908.4906,-604.3591 1890.7686,-602.5784 1872.131,-601.1332 1852.4767,-600.1614 1831.7064,-599.8011 1773.6773,-599.7778 1721.4476,-599.7568 1674.7103,-599.7381 1633.1605,-599.7214 1596.4929,-599.7066 1564.4023,-599.6937 1536.5838,-599.6826 1512.732,-599.673 1492.542,-599.6649 1475.7084,-599.6581 1461.9263,-599.6526 1450.8904,-599.6481 1442.2956,-599.6447 1435.8368,-599.6421 1431.2089,-599.6402 1428.1066,-599.639 1426.2249,-599.6382 1425.2587,-599.6378 1424.9027,-599.6377 1424.8521,-599.6377 1406.6441,-599.605 1388.1985,-599.5238 1369.5734,-599.3976 1350.8274,-599.2296 1332.019,-599.0235 1313.2067,-598.7825 1294.449,-598.5102 1275.8044,-598.2099 1257.3315,-597.8851 1239.0887,-597.5392 1221.1346,-597.1757 1203.5276,-596.798 1186.3263,-596.4094 1169.5891,-596.0135 1153.3747,-595.6137 1137.7414,-595.2134 1122.7478,-594.816 1108.4524,-594.4249 1094.9138,-594.0437 1082.1901,-593.6757 1082.1616,-594.6753"/>
<polygon fill="#000000" stroke="#000000" points="2225.9111,-422.6752 2224.0257,-412.2495 2218.9981,-421.5754 2225.9111,-422.6752"/>
</g>
<!-- Definitions -->
<g id="node8" class="node">
<title>Definitions</title>
<polygon fill="none" stroke="#000000" points="2094.2672,-36 2015.2896,-36 2015.2896,0 2094.2672,0 2094.2672,-36"/>
<text text-anchor="middle" x="2054.7784" y="-13.8" font-family="Times,serif" font-size="14.00" fill="#000000">Definitions</text>
</g>
<!-- Definitions&#45;&gt;BaseModel -->
<g id="edge6" class="edge">
<title>Definitions&#45;&gt;BaseModel</title>
<polygon fill="#000000" stroke="transparent" points="2094.5269,-22.6748 2097.4497,-23.3109 2100.4009,-24.0078 2103.3768,-24.7691 2106.3691,-25.5977 2109.3699,-26.4963 2112.3711,-27.4678 2115.3647,-28.515 2118.3428,-29.6406 2121.2972,-30.8475 2124.2199,-32.1384 2127.1031,-33.5161 2129.9385,-34.9835 2132.7183,-36.5432 2135.4345,-38.198 2138.0792,-39.9508 2140.6443,-41.8042 2143.1219,-43.761 2145.5042,-45.8241 2147.7833,-47.9962 2149.9434,-50.2718 2156.1146,-58.3426 2162.0171,-68.4323 2167.6542,-80.3478 2173.0236,-93.8844 2178.1251,-108.8382 2182.9593,-125.0059 2187.5275,-142.1848 2191.8311,-160.1724 2195.8717,-178.7664 2199.6509,-197.7647 2203.1705,-216.9653 2206.4321,-236.1661 2209.4376,-255.1652 2212.1888,-273.7608 2214.6873,-291.7508 2216.9351,-308.9335 2218.9338,-325.1071 2220.6853,-340.0696 2222.1914,-353.6192 2223.4539,-365.5541 2223.4539,-365.5541 2222.222,-353.6159 2220.7507,-340.0622 2219.0375,-325.0947 2217.0801,-308.9153 2214.8763,-291.7256 2212.4236,-273.7274 2209.7199,-255.1224 2206.7626,-236.1123 2203.5495,-216.8988 2200.0781,-197.6836 2196.3462,-178.6683 2192.3513,-160.0544 2188.0909,-142.0433 2183.5624,-124.8364 2178.7633,-108.6349 2173.6906,-93.6395 2168.3407,-80.0507 2162.7095,-68.068 2156.7904,-57.8903 2150.5826,-49.7282 2148.383,-47.3991 2146.0795,-45.1925 2143.6725,-43.0972 2141.17,-41.1103 2138.5803,-39.2289 2135.9113,-37.4502 2133.1713,-35.7711 2130.3682,-34.1889 2127.5101,-32.7006 2124.6051,-31.3032 2121.6612,-29.9939 2118.6864,-28.7698 2115.6887,-27.6279 2112.6762,-26.5655 2109.6568,-25.5795 2106.6385,-24.6672 2103.6293,-23.8257 2100.6373,-23.0521 2097.6705,-22.3435 2094.7408,-21.6979 2094.5269,-22.6748"/>
<polygon fill="#000000" stroke="#000000" points="2220.0121,-366.3129 2224.4853,-375.9171 2226.9777,-365.6196 2220.0121,-366.3129"/>
</g>
<!-- TheSystemSolvationOptions -->
<g id="node9" class="node">
<title>TheSystemSolvationOptions</title>
<polygon fill="none" stroke="#000000" points="1296.8728,-174 1119.8896,-174 1119.8896,-138 1296.8728,-138 1296.8728,-174"/>
<text text-anchor="middle" x="1208.3812" y="-151.8" font-family="Times,serif" font-size="14.00" fill="#000000">TheSystemSolvationOptions</text>
</g>
<!-- TheSystemSolvationOptions&#45;&gt;BaseModel -->
<g id="edge7" class="edge">
<title>TheSystemSolvationOptions&#45;&gt;BaseModel</title>
<polygon fill="#000000" stroke="transparent" points="1297.1758,-152.5042 1332.8524,-151.054 1373.0358,-149.524 1417.0978,-147.9719 1464.4095,-146.4555 1514.3421,-145.0323 1566.2669,-143.7601 1619.5549,-142.6966 1673.5774,-141.8993 1727.7056,-141.4261 1781.3106,-141.3344 1833.7635,-141.6822 1884.4355,-142.5269 1932.6978,-143.9262 1977.9214,-145.9379 2019.4774,-148.6195 2056.7366,-152.0287 2089.0696,-156.2229 2115.8466,-161.2593 2136.4356,-167.194 2150.2083,-174.0814 2154.9278,-178.2042 2159.5789,-183.5949 2164.1489,-190.1366 2168.6277,-197.7143 2173.0062,-206.2126 2177.2751,-215.5166 2181.4257,-225.5112 2185.4489,-236.0816 2189.3361,-247.1129 2193.0784,-258.4902 2196.6672,-270.0987 2200.0937,-281.8235 2203.3491,-293.55 2206.4248,-305.1632 2209.3121,-316.5485 2212.0021,-327.5909 2214.4863,-338.1759 2216.7558,-348.1885 2218.802,-357.5141 2220.6162,-366.0378 2220.6162,-366.0378 2218.81,-357.5124 2216.7726,-348.1848 2214.5124,-338.1699 2212.0381,-327.5823 2209.3584,-316.537 2206.4817,-305.1485 2203.4168,-293.5316 2200.1721,-281.8012 2196.7563,-270.0719 2193.1779,-258.4585 2189.4456,-247.0757 2185.5679,-236.0381 2181.5533,-225.4605 2177.4103,-215.4576 2173.1475,-206.1439 2168.7732,-197.634 2164.2956,-190.0423 2159.7227,-183.4832 2155.0619,-178.071 2150.3177,-173.9186 2136.5121,-166.9985 2115.8997,-161.0361 2089.1097,-155.9712 2056.7681,-151.745 2019.5025,-148.2999 1977.9412,-145.5787 1932.7128,-143.5242 1884.446,-142.0793 1833.7695,-141.1868 1781.3122,-140.7898 1727.7028,-140.831 1673.5701,-141.2534 1619.5432,-141.9999 1566.2506,-143.0134 1514.3214,-144.2369 1464.3844,-145.6132 1417.0684,-147.0852 1373.0022,-148.596 1332.8149,-150.0883 1297.1356,-151.505 1297.1758,-152.5042"/>
<polygon fill="#000000" stroke="#000000" points="2217.2134,-366.8671 2222.6545,-375.958 2224.0702,-365.4582 2217.2134,-366.8671"/>
</g>
<!-- TheResidueRingPucker -->
<g id="node10" class="node">
<title>TheResidueRingPucker</title>
<polygon fill="none" stroke="#000000" points="2129.2462,-458 1980.3106,-458 1980.3106,-422 2129.2462,-422 2129.2462,-458"/>
<text text-anchor="middle" x="2054.7784" y="-435.8" font-family="Times,serif" font-size="14.00" fill="#000000">TheResidueRingPucker</text>
</g>
<!-- TheResidueRingPucker&#45;&gt;BaseModel -->
<g id="edge8" class="edge">
<title>TheResidueRingPucker&#45;&gt;BaseModel</title>
<polygon fill="#000000" stroke="transparent" points="2122.1441,-422.4345 2124.8736,-421.6759 2127.6179,-420.9131 2130.3745,-420.1469 2133.1406,-419.3781 2135.9137,-418.6073 2138.6911,-417.8353 2141.4703,-417.0629 2144.2486,-416.2907 2147.0234,-415.5194 2149.7921,-414.7499 2152.5522,-413.9827 2155.3009,-413.2187 2158.0357,-412.4586 2160.7539,-411.7031 2163.453,-410.9529 2166.1304,-410.2087 2168.7833,-409.4713 2171.4093,-408.7415 2174.0057,-408.0198 2176.5699,-407.3071 2176.5699,-407.3071 2173.9935,-407.9743 2171.3847,-408.6499 2168.7462,-409.3332 2166.0806,-410.0235 2163.3906,-410.7201 2160.6786,-411.4224 2157.9474,-412.1297 2155.1996,-412.8413 2152.4378,-413.5565 2149.6646,-414.2747 2146.8827,-414.9951 2144.0946,-415.7171 2141.3031,-416.44 2138.5107,-417.1632 2135.72,-417.8859 2132.9337,-418.6074 2130.1544,-419.3272 2127.3848,-420.0444 2124.6273,-420.7585 2121.8848,-421.4687 2122.1441,-422.4345"/>
<polygon fill="#000000" stroke="#000000" points="2177.546,-410.6691 2186.2967,-404.6961 2175.7312,-403.9084 2177.546,-410.6691"/>
</g>
<!-- TheRotamerDihedralInfo -->
<g id="node11" class="node">
<title>TheRotamerDihedralInfo</title>
<polygon fill="none" stroke="#000000" points="2134.0522,-290 1975.5046,-290 1975.5046,-254 2134.0522,-254 2134.0522,-290"/>
<text text-anchor="middle" x="2054.7784" y="-267.8" font-family="Times,serif" font-size="14.00" fill="#000000">TheRotamerDihedralInfo</text>
</g>
<!-- TheRotamerDihedralInfo&#45;&gt;BaseModel -->
<g id="edge9" class="edge">
<title>TheRotamerDihedralInfo&#45;&gt;BaseModel</title>
<polygon fill="#000000" stroke="transparent" points="2123.5332,-290.4614 2124.9294,-291.041 2126.3205,-291.6312 2127.7075,-292.2329 2129.0897,-292.8462 2130.4666,-293.4711 2131.8376,-294.1079 2133.202,-294.7564 2134.5591,-295.4169 2135.9084,-296.0895 2137.2492,-296.7742 2138.5809,-297.4711 2139.9029,-298.1803 2141.2146,-298.9019 2142.5153,-299.636 2143.8044,-300.3826 2145.0812,-301.1419 2146.3452,-301.914 2147.5957,-302.699 2148.8321,-303.4969 2150.0523,-304.3067 2153.7173,-306.8652 2157.328,-309.5618 2160.8827,-312.385 2164.3782,-315.3222 2167.8113,-318.3608 2171.1788,-321.488 2174.4776,-324.6914 2177.7044,-327.9581 2180.8561,-331.2756 2183.9295,-334.6312 2186.9216,-338.0123 2189.8292,-341.4062 2192.6492,-344.8002 2195.3784,-348.1818 2198.0138,-351.5383 2200.5523,-354.8569 2202.9907,-358.1252 2205.326,-361.3304 2207.5551,-364.46 2209.6749,-367.5012 2209.6749,-367.5012 2207.581,-364.4419 2205.3783,-361.2931 2203.0699,-358.0674 2200.6585,-354.7774 2198.1473,-351.4357 2195.539,-348.0551 2192.8368,-344.648 2190.0434,-341.2271 2187.1618,-337.805 2184.1949,-334.3943 2181.1457,-331.0078 2178.017,-327.6578 2174.8117,-324.3572 2171.5328,-321.1184 2168.1831,-317.9542 2164.7655,-314.877 2161.2827,-311.8996 2157.7377,-309.0346 2154.1332,-306.2945 2150.4737,-303.6933 2149.2493,-302.8654 2148.0116,-302.0517 2146.7597,-301.251 2145.4943,-300.4632 2144.2159,-299.6882 2142.9253,-298.9259 2141.623,-298.1762 2140.3097,-297.4391 2138.986,-296.7144 2137.6526,-296.002 2136.3099,-295.302 2134.9588,-294.6141 2133.5998,-293.9383 2132.2335,-293.2745 2130.8606,-292.6226 2129.4817,-291.9826 2128.0975,-291.3542 2126.7084,-290.7375 2125.3153,-290.1324 2123.9205,-289.5395 2123.5332,-290.4614"/>
<polygon fill="#000000" stroke="#000000" points="2206.7947,-369.4909 2215.2422,-375.8854 2212.6261,-365.6186 2206.7947,-369.4909"/>
</g>
<!-- SingleLinkageRotamerData -->
<g id="node12" class="node">
<title>SingleLinkageRotamerData</title>
<polygon fill="none" stroke="#000000" points="1917.9897,-290 1745.4197,-290 1745.4197,-254 1917.9897,-254 1917.9897,-290"/>
<text text-anchor="middle" x="1831.7047" y="-267.8" font-family="Times,serif" font-size="14.00" fill="#000000">SingleLinkageRotamerData</text>
</g>
<!-- SingleLinkageRotamerData&#45;&gt;BaseModel -->
<g id="edge10" class="edge">
<title>SingleLinkageRotamerData&#45;&gt;BaseModel</title>
<polygon fill="#000000" stroke="transparent" points="1873.1667,-254.3906 1883.27,-250.5254 1894.2174,-246.5607 1905.9371,-242.5718 1918.3537,-238.6351 1931.3916,-234.827 1944.9753,-231.2242 1959.0292,-227.903 1973.4779,-224.94 1988.2457,-222.4116 2003.2572,-220.3942 2018.4368,-218.9644 2033.7091,-218.1985 2048.9985,-218.173 2064.2296,-218.9642 2079.3271,-220.6485 2094.2155,-223.3023 2108.8198,-227.0021 2123.0646,-231.8242 2136.8749,-237.8454 2150.1764,-245.1426 2156.4395,-249.316 2162.3638,-253.9395 2167.9575,-258.9706 2173.2294,-264.367 2178.1882,-270.0864 2182.8425,-276.0864 2187.2012,-282.3247 2191.2729,-288.7586 2195.0665,-295.3459 2198.5908,-302.044 2201.8546,-308.8105 2204.8666,-315.6029 2207.6359,-322.3788 2210.1711,-329.0956 2212.4813,-335.711 2214.5752,-342.1824 2216.4618,-348.4674 2218.1499,-354.5236 2219.6485,-360.3085 2220.9663,-365.7797 2220.9663,-365.7797 2219.6612,-360.3054 2218.176,-354.5166 2216.5018,-348.4559 2214.6295,-342.1655 2212.5502,-335.6879 2210.2548,-329.0653 2207.7342,-322.3403 2204.9795,-315.555 2201.9816,-308.7519 2198.7314,-301.9734 2195.2199,-295.2617 2191.438,-288.6592 2187.3765,-282.2083 2183.0264,-275.9514 2178.3784,-269.9307 2173.4235,-264.1888 2168.1524,-258.768 2162.5559,-253.7109 2156.6248,-249.0599 2150.3496,-244.8574 2137.038,-237.5143 2123.2107,-231.4474 2108.9447,-226.5811 2094.316,-222.839 2079.4006,-220.1446 2064.2746,-218.4215 2049.0137,-217.5932 2033.6939,-217.5832 2018.3908,-218.3149 2003.1801,-219.712 1988.1376,-221.6979 1973.3389,-224.1962 1958.8597,-227.1305 1944.7757,-230.4242 1931.1625,-234.001 1918.0958,-237.7846 1905.6512,-241.6984 1893.9043,-245.6661 1882.9309,-249.6114 1872.8105,-253.4563 1873.1667,-254.3906"/>
<polygon fill="#000000" stroke="#000000" points="2217.6231,-366.8815 2223.1459,-375.9231 2224.4669,-365.4109 2217.6231,-366.8815"/>
</g>
<!-- SingleLinkageRotamerData&#45;&gt;TheRotamerDihedralInfo -->
<g id="edge11" class="edge">
<title>SingleLinkageRotamerData&#45;&gt;TheRotamerDihedralInfo</title>
<path fill="none" stroke="#000000" stroke-width="2" d="M1917.9508,-272C1933.4391,-272 1949.6141,-272 1965.1942,-272"/>
<polygon fill="#000000" stroke="#000000" stroke-width="2" points="1965.3334,-275.5001 1975.3334,-272 1965.3334,-268.5001 1965.3334,-275.5001"/>
</g>
<!-- TheResidueGeometryOptions -->
<g id="node13" class="node">
<title>TheResidueGeometryOptions</title>
<polygon fill="none" stroke="#000000" points="1923.383,-439 1740.0264,-439 1740.0264,-403 1923.383,-403 1923.383,-439"/>
<text text-anchor="middle" x="1831.7047" y="-416.8" font-family="Times,serif" font-size="14.00" fill="#000000">TheResidueGeometryOptions</text>
</g>
<!-- TheResidueGeometryOptions&#45;&gt;BaseModel -->
<g id="edge12" class="edge">
<title>TheResidueGeometryOptions&#45;&gt;BaseModel</title>
<polygon fill="#000000" stroke="transparent" points="1923.7193,-415.2026 1935.7513,-414.3551 1948.1986,-413.4783 1961.0024,-412.5765 1974.1036,-411.6537 1987.4434,-410.714 2000.9628,-409.7618 2014.6028,-408.801 2028.3045,-407.8359 2042.009,-406.8706 2055.6573,-405.9092 2069.1904,-404.956 2082.5494,-404.015 2095.6754,-403.0904 2108.5094,-402.1864 2120.9925,-401.3071 2133.0656,-400.4567 2144.67,-399.6394 2155.7466,-398.8591 2166.2364,-398.1203 2176.0806,-397.4269 2176.0806,-397.4269 2166.2338,-398.0813 2155.7411,-398.7788 2144.6615,-399.5152 2133.054,-400.2867 2120.9775,-401.0894 2108.4911,-401.9193 2095.6536,-402.7726 2082.5241,-403.6452 2069.1615,-404.5334 2055.6247,-405.4331 2041.9727,-406.3405 2028.2646,-407.2517 2014.5591,-408.1626 2000.9154,-409.0695 1987.3924,-409.9683 1974.049,-410.8552 1960.9442,-411.7262 1948.137,-412.5775 1935.6862,-413.405 1923.651,-414.2049 1923.7193,-415.2026"/>
<polygon fill="#000000" stroke="#000000" points="2176.4733,-400.9083 2186.2109,-396.7334 2175.9952,-393.9246 2176.4733,-400.9083"/>
</g>
<!-- TheResidueGeometryOptions&#45;&gt;TheResidueRingPucker -->
<g id="edge13" class="edge">
<title>TheResidueGeometryOptions&#45;&gt;TheResidueRingPucker</title>
<path fill="none" stroke="#000000" stroke-width="2" d="M1923.403,-428.8103C1938.7321,-430.1159 1954.5778,-431.4656 1969.7311,-432.7562"/>
<polygon fill="#000000" stroke="#000000" stroke-width="2" points="1969.8354,-436.2777 1980.0964,-433.6391 1970.4296,-429.3029 1969.8354,-436.2777"/>
</g>
<!-- AllLinkageRotamerInfo -->
<g id="node14" class="node">
<title>AllLinkageRotamerInfo</title>
<polygon fill="none" stroke="#000000" points="1704.2604,-328 1552.6818,-328 1552.6818,-292 1704.2604,-292 1704.2604,-328"/>
<text text-anchor="middle" x="1628.4711" y="-305.8" font-family="Times,serif" font-size="14.00" fill="#000000">AllLinkageRotamerInfo</text>
</g>
<!-- AllLinkageRotamerInfo&#45;&gt;BaseModel -->
<g id="edge14" class="edge">
<title>AllLinkageRotamerInfo&#45;&gt;BaseModel</title>
<polygon fill="#000000" stroke="transparent" points="1704.2645,-310.2101 1723.7546,-310.2755 1744.7919,-310.4139 1767.1686,-310.64 1790.6758,-310.9684 1815.105,-311.4136 1840.2473,-311.9904 1865.894,-312.7133 1891.8366,-313.597 1917.8661,-314.656 1943.7741,-315.9049 1969.3517,-317.3583 1994.3902,-319.0309 2018.6809,-320.9373 2042.0152,-323.092 2064.1842,-325.5096 2084.9793,-328.2048 2104.1916,-331.1921 2121.6126,-334.4861 2137.0332,-338.1013 2150.2458,-342.0524 2152.8499,-342.9831 2155.448,-343.9869 2158.0371,-345.059 2160.6147,-346.1951 2163.1783,-347.3909 2165.7255,-348.642 2168.2538,-349.944 2170.7607,-351.2926 2173.2439,-352.6833 2175.7008,-354.1118 2178.1291,-355.5738 2180.5262,-357.0648 2182.8897,-358.5805 2185.2172,-360.1166 2187.5062,-361.6686 2189.7543,-363.2321 2191.959,-364.8029 2194.1179,-366.3765 2196.2285,-367.9485 2198.2885,-369.5146 2198.2885,-369.5146 2196.2316,-367.9444 2194.1241,-366.3681 2191.9682,-364.7902 2189.7664,-363.2149 2187.5212,-361.6468 2185.235,-360.09 2182.9102,-358.5491 2180.5492,-357.0284 2178.1545,-355.5323 2175.7285,-354.0651 2173.2737,-352.6313 2170.7923,-351.2351 2168.287,-349.881 2165.7601,-348.5733 2163.214,-347.3165 2160.6512,-346.1149 2158.074,-344.9728 2155.485,-343.8947 2152.8865,-342.8849 2150.2802,-341.9476 2137.0688,-337.9682 2121.6478,-334.3206 2104.2265,-330.9907 2085.0138,-327.9643 2064.2182,-325.2271 2042.0484,-322.7648 2018.7132,-320.5633 1994.4213,-318.6083 1969.3814,-316.8857 1943.8021,-315.3812 1917.8923,-314.0807 1891.8606,-312.9699 1865.9158,-312.0346 1840.2666,-311.2606 1815.1218,-310.6339 1790.69,-310.14 1767.18,-309.7649 1744.8005,-309.4944 1723.7603,-309.3142 1704.2688,-309.2102 1704.2645,-310.2101"/>
<polygon fill="#000000" stroke="#000000" points="2196.2392,-372.3573 2206.2369,-375.8642 2200.6083,-366.8881 2196.2392,-372.3573"/>
</g>
<!-- AllLinkageRotamerInfo&#45;&gt;SingleLinkageRotamerData -->
<g id="edge15" class="edge">
<title>AllLinkageRotamerInfo&#45;&gt;SingleLinkageRotamerData</title>
<path fill="none" stroke="#000000" stroke-width="2" d="M1704.1478,-295.8502C1714.3251,-293.9473 1724.8744,-291.9748 1735.349,-290.0163"/>
<polygon fill="#000000" stroke="#000000" stroke-width="2" points="1736.1679,-293.4239 1745.3542,-288.1456 1734.8813,-286.5432 1736.1679,-293.4239"/>
</g>
<!-- Single3DStructureBuildDetails -->
<g id="node15" class="node">
<title>Single3DStructureBuildDetails</title>
<polygon fill="none" stroke="#000000" points="2150.2476,-740 1959.3092,-740 1959.3092,-704 2150.2476,-704 2150.2476,-740"/>
<text text-anchor="middle" x="2054.7784" y="-717.8" font-family="Times,serif" font-size="14.00" fill="#000000">Single3DStructureBuildDetails</text>
</g>
<!-- Single3DStructureBuildDetails&#45;&gt;BaseModel -->
<g id="edge16" class="edge">
<title>Single3DStructureBuildDetails&#45;&gt;BaseModel</title>
<polygon fill="#000000" stroke="transparent" points="2132.7038,-704.2703 2133.6912,-703.695 2134.6733,-703.1062 2135.6473,-702.5053 2136.6126,-701.8922 2137.5691,-701.2666 2138.5163,-700.6286 2139.4538,-699.978 2140.3813,-699.3146 2141.2985,-698.6384 2142.205,-697.9491 2143.1004,-697.2468 2143.9844,-696.5312 2144.8566,-695.8023 2145.7167,-695.0598 2146.5642,-694.3038 2147.3989,-693.534 2148.2203,-692.7503 2149.0282,-691.9527 2149.8221,-691.1409 2150.6125,-690.3036 2156.0317,-683.4735 2161.2824,-674.9658 2166.3561,-664.956 2171.2523,-653.6051 2175.9687,-641.0745 2180.502,-627.5265 2184.8482,-613.1241 2189.0033,-598.0301 2192.9629,-582.408 2196.7227,-566.4211 2200.2782,-550.2329 2203.625,-534.007 2206.7585,-517.9069 2209.6743,-502.0964 2212.3679,-486.7391 2214.8347,-471.9987 2217.0701,-458.0389 2219.0697,-445.0234 2220.829,-433.116 2222.3433,-422.4802 2222.3433,-422.4802 2220.7938,-433.1108 2218.9951,-445.0121 2216.9525,-458.0203 2214.671,-471.9717 2212.1556,-486.7024 2209.4116,-502.0487 2206.4439,-517.8468 2203.2578,-533.9327 2199.8583,-550.1428 2196.2505,-566.3129 2192.4397,-582.2793 2188.431,-597.8779 2184.2297,-612.9445 2179.8411,-627.3151 2175.2707,-640.8251 2170.5243,-653.3098 2165.6081,-664.6041 2160.5295,-674.5419 2155.2976,-682.9566 2149.9135,-689.6964 2149.1534,-690.4964 2148.3683,-691.2938 2147.5694,-692.0774 2146.7569,-692.8473 2145.9313,-693.6037 2145.0929,-694.3467 2144.242,-695.0763 2143.379,-695.7927 2142.5042,-696.4961 2141.618,-697.1865 2140.7207,-697.864 2139.8127,-698.5289 2138.8943,-699.1811 2137.9659,-699.8209 2137.0278,-700.4482 2136.0804,-701.0634 2135.124,-701.6664 2134.159,-702.2574 2133.1857,-702.8366 2132.2018,-703.4055 2132.7038,-704.2703"/>
<polygon fill="#000000" stroke="#000000" points="2225.843,-422.7234 2223.7524,-412.3369 2218.9096,-421.7601 2225.843,-422.7234"/>
</g>
<!-- StructureBuildInfo -->
<g id="node16" class="node">
<title>StructureBuildInfo</title>
<polygon fill="none" stroke="#000000" points="1892.4581,-721 1770.9513,-721 1770.9513,-685 1892.4581,-685 1892.4581,-721"/>
<text text-anchor="middle" x="1831.7047" y="-698.8" font-family="Times,serif" font-size="14.00" fill="#000000">StructureBuildInfo</text>
</g>
<!-- StructureBuildInfo&#45;&gt;BaseModel -->
<g id="edge17" class="edge">
<title>StructureBuildInfo&#45;&gt;BaseModel</title>
<polygon fill="#000000" stroke="transparent" points="1892.866,-697.2415 1906.3818,-695.7452 1920.7153,-694.1195 1935.7184,-692.3726 1951.2437,-690.5129 1967.1437,-688.5488 1983.2709,-686.4887 1999.4779,-684.3408 2015.6172,-682.1136 2031.5415,-679.8153 2047.1032,-677.4543 2062.155,-675.0389 2076.5494,-672.5775 2090.1393,-670.0783 2102.7773,-667.5496 2114.3163,-664.9996 2124.6095,-662.4364 2133.5108,-659.8678 2140.8748,-657.3007 2146.5598,-654.7394 2150.4181,-652.1859 2155.6103,-646.7567 2160.6556,-639.8539 2165.5559,-631.6133 2170.3078,-622.1739 2174.907,-611.6745 2179.3481,-600.2547 2183.6259,-588.054 2187.7346,-575.2122 2191.6685,-561.8692 2195.4217,-548.1649 2198.9885,-534.2393 2202.3629,-520.2325 2205.5391,-506.2846 2208.5112,-492.5356 2211.2733,-479.1258 2213.8195,-466.195 2216.1438,-453.8836 2218.2404,-442.3317 2220.1033,-431.6793 2221.7266,-422.0666 2221.7266,-422.0666 2220.0843,-431.676 2218.2003,-442.3245 2216.0809,-453.8719 2213.7324,-466.1782 2211.1608,-479.103 2208.3725,-492.5062 2205.3735,-506.2477 2202.1702,-520.1872 2198.7687,-534.1845 2195.1754,-548.0993 2191.3963,-561.7915 2187.4378,-575.1207 2183.3063,-587.9465 2179.0079,-600.1286 2174.5493,-611.5263 2169.9371,-621.9991 2165.1783,-631.4059 2160.2804,-639.6055 2155.2523,-646.4563 2150.1079,-651.8141 2146.3228,-654.3086 2140.6891,-656.8334 2133.3541,-659.374 2124.4709,-661.9184 2114.1894,-664.4571 2102.6582,-666.9814 2090.0256,-669.483 2076.4394,-671.9538 2062.0473,-674.3855 2046.9971,-676.7701 2031.4363,-679.0995 2015.5124,-681.3656 1999.3731,-683.5603 1983.1659,-685.6756 1967.0383,-687.7033 1951.1378,-689.6355 1935.612,-691.4641 1920.6084,-693.181 1906.2744,-694.7781 1892.7569,-696.2475 1892.866,-697.2415"/>
<polygon fill="#000000" stroke="#000000" points="2225.1971,-422.531 2223.3609,-412.0965 2218.2893,-421.3986 2225.1971,-422.531"/>
</g>
<!-- StructureBuildInfo&#45;&gt;Single3DStructureBuildDetails -->
<g id="edge18" class="edge">
<title>StructureBuildInfo&#45;&gt;Single3DStructureBuildDetails</title>
<path fill="none" stroke="#000000" stroke-width="2" d="M1892.6606,-708.1918C1910.127,-709.6795 1929.6929,-711.346 1949.0265,-712.9927"/>
<polygon fill="#000000" stroke="#000000" stroke-width="2" points="1948.8421,-716.4896 1959.1031,-713.851 1949.4363,-709.5149 1948.8421,-716.4896"/>
</g>
<!-- TheLinkageGeometryOptions -->
<g id="node17" class="node">
<title>TheLinkageGeometryOptions</title>
<polygon fill="none" stroke="#000000" points="1516.8014,-374 1332.9022,-374 1332.9022,-338 1516.8014,-338 1516.8014,-374"/>
<text text-anchor="middle" x="1424.8518" y="-351.8" font-family="Times,serif" font-size="14.00" fill="#000000">TheLinkageGeometryOptions</text>
</g>
<!-- TheLinkageGeometryOptions&#45;&gt;BaseModel -->
<g id="edge19" class="edge">
<title>TheLinkageGeometryOptions&#45;&gt;BaseModel</title>
<polygon fill="#000000" stroke="transparent" points="1517.1375,-360.8771 1543.9719,-362.1293 1573.3018,-363.4979 1604.8182,-364.9686 1638.2123,-366.5268 1673.1751,-368.1583 1709.3975,-369.8486 1746.5706,-371.5832 1784.3856,-373.3478 1822.5333,-375.1279 1860.705,-376.9091 1898.5915,-378.677 1935.884,-380.4172 1972.2735,-382.1153 2007.451,-383.7568 2041.1076,-385.3273 2072.9343,-386.8125 2102.6221,-388.1978 2129.8622,-389.4689 2154.3455,-390.6114 2175.7632,-391.6108 2175.7632,-391.6108 2154.3471,-390.5789 2129.8655,-389.3993 2102.6274,-388.0869 2072.9417,-386.6565 2041.1172,-385.1231 2007.4631,-383.5015 1972.2881,-381.8067 1935.9012,-380.0534 1898.6114,-378.2567 1860.7276,-376.4313 1822.5588,-374.5922 1784.4137,-372.7542 1746.6015,-370.9323 1709.431,-369.1413 1673.2112,-367.3961 1638.251,-365.7116 1604.8593,-364.1027 1573.3451,-362.5842 1544.0173,-361.1711 1517.1848,-359.8782 1517.1375,-360.8771"/>
<polygon fill="#000000" stroke="#000000" points="2175.8193,-395.1173 2185.9739,-392.095 2176.151,-388.1252 2175.8193,-395.1173"/>
</g>
<!-- TheLinkageGeometryOptions&#45;&gt;AllLinkageRotamerInfo -->
<g id="edge20" class="edge">
<title>TheLinkageGeometryOptions&#45;&gt;AllLinkageRotamerInfo</title>
<path fill="none" stroke="#000000" stroke-width="2" d="M1504.7431,-337.9516C1517.227,-335.1314 1530.1724,-332.2068 1542.7795,-329.3588"/>
<polygon fill="#000000" stroke="#000000" stroke-width="2" points="1543.8194,-332.7121 1552.8023,-327.0945 1542.2768,-325.8842 1543.8194,-332.7121"/>
</g>
<!-- TheGeometryOptions -->
<g id="node18" class="node">
<title>TheGeometryOptions</title>
<polygon fill="none" stroke="#000000" points="1277.4584,-439 1139.304,-439 1139.304,-403 1277.4584,-403 1277.4584,-439"/>
<text text-anchor="middle" x="1208.3812" y="-416.8" font-family="Times,serif" font-size="14.00" fill="#000000">TheGeometryOptions</text>
</g>
<!-- TheGeometryOptions&#45;&gt;BaseModel -->
<g id="edge21" class="edge">
<title>TheGeometryOptions&#45;&gt;BaseModel</title>
<polygon fill="#000000" stroke="transparent" points="1277.6319,-438.9062 1290.5086,-441.8512 1304.2315,-444.9042 1318.7404,-448.0367 1333.9762,-451.2209 1349.8799,-454.4286 1366.3926,-457.6318 1383.4552,-460.8026 1401.0087,-463.9128 1418.9942,-466.9345 1437.3526,-469.8396 1456.025,-472.6002 1474.9523,-475.1882 1494.0756,-477.5755 1513.3359,-479.7341 1532.6742,-481.6361 1552.0315,-483.2534 1571.3488,-484.5579 1590.5672,-485.5216 1609.6276,-486.1164 1628.4694,-486.3144 1628.4965,-486.3144 1628.6743,-486.3143 1629.157,-486.3141 1630.097,-486.3136 1631.6466,-486.3128 1633.9584,-486.3116 1637.1847,-486.3099 1641.4781,-486.3076 1646.9908,-486.3047 1653.8753,-486.3011 1662.2841,-486.2967 1672.3696,-486.2915 1684.2841,-486.2852 1698.1802,-486.2779 1714.2103,-486.2696 1732.5267,-486.26 1753.2819,-486.2491 1776.6284,-486.2369 1802.7185,-486.2232 1831.7033,-486.2081 1852.2842,-486.4649 1871.5727,-487.1913 1889.704,-488.2878 1906.8117,-489.6546 1923.0295,-491.1925 1938.4911,-492.8017 1953.3299,-494.3826 1967.6797,-495.8358 1981.6738,-497.0615 1995.4457,-497.9602 2009.1288,-498.432 2022.8564,-498.3774 2036.7619,-497.6966 2050.9784,-496.2901 2065.6392,-494.0582 2080.8778,-490.9014 2096.8275,-486.7203 2113.6218,-481.4153 2131.3943,-474.8868 2150.2785,-467.0354 2153.6799,-465.4606 2157.0365,-463.7452 2160.3458,-461.8996 2163.6052,-459.9338 2166.812,-457.8581 2169.9637,-455.6824 2173.0578,-453.4171 2176.0914,-451.0722 2179.0622,-448.6578 2181.9675,-446.1842 2184.8046,-443.6613 2187.5709,-441.0995 2190.2639,-438.5088 2192.881,-435.8993 2195.4195,-433.2813 2197.8768,-430.6647 2200.2504,-428.0599 2202.5375,-425.4769 2204.7357,-422.9258 2206.8422,-420.4168 2206.8422,-420.4168 2204.7331,-422.9235 2202.5323,-425.4723 2200.2425,-428.0528 2197.8664,-430.6551 2195.4065,-433.2688 2192.8655,-435.884 2190.246,-438.4904 2187.5506,-441.078 2184.782,-443.6365 2181.9428,-446.1558 2179.0357,-448.6259 2176.0632,-451.0365 2173.028,-453.3775 2169.9327,-455.6388 2166.78,-457.8102 2163.5726,-459.8816 2160.3129,-461.8429 2157.0038,-463.6839 2153.6477,-465.3945 2150.2475,-466.9646 2131.3583,-474.7948 2113.5835,-481.303 2096.7895,-486.5886 2080.8427,-490.7512 2065.6092,-493.8903 2050.9553,-496.1054 2036.7471,-497.4961 2022.8508,-498.1618 2009.1324,-498.2021 1995.458,-497.7162 1981.6936,-496.8036 1967.7055,-495.5636 1953.3599,-494.0957 1938.5231,-492.4992 1923.0614,-490.8737 1906.8413,-489.3185 1889.7291,-487.9332 1871.5912,-486.8174 1852.2943,-486.0704 1831.7061,-485.7919 1802.7185,-485.7768 1776.6284,-485.7631 1753.2819,-485.7509 1732.5267,-485.74 1714.2103,-485.7304 1698.1802,-485.7221 1684.2841,-485.7148 1672.3696,-485.7085 1662.2841,-485.7033 1653.8753,-485.6989 1646.9908,-485.6953 1641.4781,-485.6924 1637.1847,-485.6901 1633.9584,-485.6884 1631.6466,-485.6872 1630.097,-485.6864 1629.157,-485.6859 1628.6743,-485.6857 1628.4965,-485.6856 1628.4728,-485.6856 1609.6415,-485.468 1590.5947,-484.8536 1571.3896,-483.8704 1552.0852,-482.5465 1532.7406,-480.9099 1513.4147,-478.9887 1494.1666,-476.811 1475.0552,-474.4049 1456.1395,-471.7983 1437.4786,-469.0195 1419.1313,-466.0965 1401.1568,-463.0573 1383.614,-459.93 1366.5619,-456.7427 1350.0595,-453.5235 1334.1657,-450.3005 1318.9395,-447.1018 1304.44,-443.9553 1290.7261,-440.8893 1277.8554,-437.9315 1277.6319,-438.9062"/>
<polygon fill="#000000" stroke="#000000" points="2209.9383,-422.1479 2213.4367,-412.1473 2204.4654,-417.7835 2209.9383,-422.1479"/>
</g>
<!-- TheGeometryOptions&#45;&gt;TheResidueGeometryOptions -->
<g id="edge23" class="edge">
<title>TheGeometryOptions&#45;&gt;TheResidueGeometryOptions</title>
<path fill="none" stroke="#000000" stroke-width="2" d="M1277.4693,-421C1387.259,-421 1602.1523,-421 1729.6971,-421"/>
<polygon fill="#000000" stroke="#000000" stroke-width="2" points="1729.8634,-424.5001 1739.8634,-421 1729.8633,-417.5001 1729.8634,-424.5001"/>
</g>
<!-- TheGeometryOptions&#45;&gt;TheLinkageGeometryOptions -->
<g id="edge22" class="edge">
<title>TheGeometryOptions&#45;&gt;TheLinkageGeometryOptions</title>
<path fill="none" stroke="#000000" stroke-width="2" d="M1268.3929,-402.9802C1295.2554,-394.9141 1327.0993,-385.3523 1355.0241,-376.9673"/>
<polygon fill="#000000" stroke="#000000" stroke-width="2" points="1356.1524,-380.2829 1364.7234,-374.0549 1354.1393,-373.5787 1356.1524,-380.2829"/>
</g>
<!-- TheBuildOptions -->
<g id="node19" class="node">
<title>TheBuildOptions</title>
<polygon fill="none" stroke="#000000" points="1069.2264,-502 955.7912,-502 955.7912,-466 1069.2264,-466 1069.2264,-502"/>
<text text-anchor="middle" x="1012.5088" y="-479.8" font-family="Times,serif" font-size="14.00" fill="#000000">TheBuildOptions</text>
</g>
<!-- TheBuildOptions&#45;&gt;BaseModel -->
<g id="edge24" class="edge">
<title>TheBuildOptions&#45;&gt;BaseModel</title>
<polygon fill="#000000" stroke="transparent" points="1069.2973,-493.5214 1081.7133,-495.3379 1095.1011,-497.245 1109.3923,-499.2225 1124.5189,-501.2506 1140.4132,-503.3094 1157.0073,-505.379 1174.2336,-507.4395 1192.0241,-509.4711 1210.3112,-511.4538 1229.027,-513.3677 1248.1037,-515.193 1267.4735,-516.9097 1287.0687,-518.4981 1306.8215,-519.9381 1326.6641,-521.21 1346.5287,-522.2938 1366.3475,-523.1695 1386.0528,-523.8174 1405.5769,-524.2175 1424.8505,-524.35 1424.9027,-524.3499 1425.2587,-524.3498 1426.2249,-524.3494 1428.1066,-524.3486 1431.2089,-524.3473 1435.8368,-524.3454 1442.2956,-524.3426 1450.8904,-524.339 1461.9263,-524.3344 1475.7084,-524.3286 1492.542,-524.3215 1512.732,-524.313 1536.5838,-524.303 1564.4023,-524.2913 1596.4929,-524.2779 1633.1605,-524.2625 1674.7103,-524.245 1721.4476,-524.2254 1773.6773,-524.2034 1831.7034,-524.179 1852.366,-524.4612 1871.8025,-525.2494 1890.1357,-526.4299 1907.4865,-527.8886 1923.9763,-529.5116 1939.7261,-531.1849 1954.8571,-532.7946 1969.4904,-534.2266 1983.7469,-535.3669 1997.7478,-536.1014 2011.6139,-536.316 2025.466,-535.8965 2039.4251,-534.729 2053.6118,-532.6993 2068.1471,-529.6936 2083.1517,-525.5978 2098.7466,-520.2981 2115.0527,-513.6806 2132.1913,-505.6314 2150.2835,-496.0365 2154.7119,-493.3989 2159.0136,-490.5225 2163.1878,-487.4278 2167.234,-484.1352 2171.1516,-480.665 2174.9399,-477.0376 2178.5983,-473.2733 2182.1264,-469.3925 2185.5233,-465.4155 2188.7887,-461.3626 2191.9217,-457.2542 2194.9219,-453.1107 2197.7885,-448.9523 2200.5211,-444.7994 2203.1189,-440.6724 2205.5813,-436.5916 2207.9078,-432.5773 2210.0977,-428.6498 2212.1504,-424.8296 2214.0652,-421.137 2214.0652,-421.137 2212.1473,-424.828 2210.0915,-428.6464 2207.8983,-432.5719 2205.5686,-436.584 2203.1029,-440.6625 2200.5018,-444.787 2197.7661,-448.9372 2194.8963,-453.0926 2191.8931,-457.233 2188.7572,-461.3379 2185.4892,-465.3872 2182.0898,-469.3603 2178.5596,-473.2369 2174.8993,-476.9967 2171.1096,-480.6194 2167.1911,-484.0846 2163.1444,-487.3719 2158.9704,-490.461 2154.6695,-493.3316 2150.2425,-495.9635 2132.1462,-505.5411 2115.0059,-513.5735 2098.7006,-520.1747 2083.1091,-525.4586 2068.1102,-529.5393 2053.5824,-532.5308 2039.4045,-534.547 2025.455,-535.7019 2011.6124,-536.1094 1997.7553,-535.8834 1983.7622,-535.1375 1969.5119,-533.9857 1954.8831,-532.5417 1939.7545,-530.9194 1924.005,-529.2327 1907.5134,-527.5955 1890.1587,-526.1218 1871.8197,-524.9255 1852.3754,-524.1205 1831.706,-523.821 1773.6773,-523.7966 1721.4476,-523.7746 1674.7103,-523.755 1633.1605,-523.7375 1596.4929,-523.7221 1564.4023,-523.7087 1536.5838,-523.697 1512.732,-523.687 1492.542,-523.6785 1475.7084,-523.6714 1461.9263,-523.6656 1450.8904,-523.661 1442.2956,-523.6574 1435.8368,-523.6546 1431.2089,-523.6527 1428.1066,-523.6514 1426.2249,-523.6506 1425.2587,-523.6502 1424.9027,-523.6501 1424.8531,-523.65 1405.587,-523.5015 1386.0727,-523.0851 1366.3767,-522.421 1346.5668,-521.5289 1326.7107,-520.4289 1306.8765,-519.1409 1287.1317,-517.6847 1267.5442,-516.0804 1248.1819,-514.3479 1229.1125,-512.5072 1210.4038,-510.5781 1192.1236,-508.5806 1174.3398,-506.5347 1157.12,-504.4603 1140.5321,-502.3773 1124.6438,-500.3057 1109.5231,-498.2654 1095.2375,-496.2765 1081.8551,-494.3587 1069.4425,-492.532 1069.2973,-493.5214"/>
<polygon fill="#000000" stroke="#000000" points="2217.2319,-422.6284 2218.4793,-412.1072 2210.9431,-419.5542 2217.2319,-422.6284"/>
</g>
<!-- TheBuildOptions&#45;&gt;TheSystemSolvationOptions -->
<g id="edge26" class="edge">
<title>TheBuildOptions&#45;&gt;TheSystemSolvationOptions</title>
<path fill="none" stroke="#000000" stroke-width="2" d="M1069.3225,-467.669C1074.6253,-464.6767 1079.6058,-461.1508 1083.8854,-457 1104.7782,-436.7358 1172.583,-254.3969 1198.3345,-183.7695"/>
<polygon fill="#000000" stroke="#000000" stroke-width="2" points="1201.6889,-184.7863 1201.8182,-174.1923 1195.1106,-182.3934 1201.6889,-184.7863"/>
</g>
<!-- TheBuildOptions&#45;&gt;TheGeometryOptions -->
<g id="edge25" class="edge">
<title>TheBuildOptions&#45;&gt;TheGeometryOptions</title>
<path fill="none" stroke="#000000" stroke-width="2" d="M1068.638,-465.9467C1091.6889,-458.5327 1118.5438,-449.8951 1142.5166,-442.1845"/>
<polygon fill="#000000" stroke="#000000" stroke-width="2" points="1143.7958,-445.4498 1152.2438,-439.0559 1141.6524,-438.786 1143.7958,-445.4498"/>
</g>
<!-- TheDrawOptions -->
<g id="node20" class="node">
<title>TheDrawOptions</title>
<polygon fill="none" stroke="#000000" points="1069.197,-556 955.8206,-556 955.8206,-520 1069.197,-520 1069.197,-556"/>
<text text-anchor="middle" x="1012.5088" y="-533.8" font-family="Times,serif" font-size="14.00" fill="#000000">TheDrawOptions</text>
</g>
<!-- TheDrawOptions&#45;&gt;BaseModel -->
<g id="edge27" class="edge">
<title>TheDrawOptions&#45;&gt;BaseModel</title>
<polygon fill="#000000" stroke="transparent" points="1069.0982,-543.8841 1081.5223,-544.972 1094.9225,-546.1144 1109.2295,-547.2994 1124.3751,-548.5149 1140.2907,-549.7491 1156.9078,-550.9899 1174.1579,-552.2254 1191.9726,-553.4436 1210.2832,-554.6325 1229.0215,-555.7802 1248.1187,-556.8746 1267.5066,-557.9039 1287.1165,-558.856 1306.88,-559.7189 1326.7287,-560.4808 1346.594,-561.1295 1366.4074,-561.6533 1386.1005,-562.0399 1405.6048,-562.2776 1424.851,-562.3543 1424.9027,-562.3542 1425.2587,-562.3541 1426.2249,-562.3537 1428.1066,-562.3529 1431.2089,-562.3517 1435.8368,-562.3498 1442.2956,-562.3471 1450.8904,-562.3436 1461.9263,-562.3391 1475.7084,-562.3335 1492.542,-562.3266 1512.732,-562.3183 1536.5838,-562.3086 1564.4023,-562.2972 1596.4929,-562.2841 1633.1605,-562.2691 1674.7103,-562.2521 1721.4476,-562.2329 1773.6773,-562.2116 1831.7032,-562.1878 1852.4243,-562.5038 1871.9802,-563.3838 1890.4825,-564.7002 1908.0412,-566.3253 1924.7662,-568.1314 1940.7676,-569.9909 1956.1553,-571.7758 1971.0392,-573.3586 1985.5292,-574.6112 1999.7351,-575.406 2013.7667,-575.6149 2027.7336,-575.11 2041.7454,-573.7636 2055.9116,-571.4477 2070.3418,-568.0346 2085.1456,-563.3968 2100.4327,-557.4064 2116.3129,-549.9361 2132.8961,-540.858 2150.2925,-530.0445 2155.885,-526.0944 2161.2221,-521.7872 2166.3085,-517.1569 2171.1489,-512.2375 2175.748,-507.063 2180.1105,-501.6673 2184.2413,-496.0844 2188.145,-490.3481 2191.8264,-484.4925 2195.2902,-478.5514 2198.5411,-472.5588 2201.5838,-466.5486 2204.4231,-460.5547 2207.0637,-454.611 2209.5103,-448.7516 2211.7675,-443.0102 2213.8401,-437.4209 2215.7329,-432.0175 2217.4504,-426.8341 2218.9974,-421.9045 2218.9974,-421.9045 2217.4464,-426.8328 2215.7246,-432.0147 2213.8276,-437.4163 2211.7505,-443.0037 2209.4887,-448.7428 2207.0376,-454.5997 2204.3924,-460.5405 2201.5486,-466.5313 2198.5014,-472.538 2195.2463,-478.5267 2191.7785,-484.4635 2188.0934,-490.3144 2184.1864,-496.0454 2180.0528,-501.6226 2175.688,-507.0121 2171.0873,-512.1799 2166.2462,-517.092 2161.1599,-521.7146 2155.824,-526.0136 2150.2335,-529.9555 2132.8339,-540.7513 2116.25,-549.8121 2100.3721,-557.2655 2085.0903,-563.2393 2070.2943,-567.8615 2055.8741,-571.2597 2041.7193,-573.5618 2027.7195,-574.8956 2013.7644,-575.3886 1999.7437,-575.1683 1985.5471,-574.3625 1971.0644,-573.0985 1956.1857,-571.504 1940.8007,-569.7066 1924.7997,-567.8339 1908.0725,-566.0137 1890.5094,-564.3737 1872.0002,-563.0416 1852.4353,-562.1451 1831.7062,-561.8122 1773.6773,-561.7884 1721.4476,-561.7671 1674.7103,-561.7479 1633.1605,-561.7309 1596.4929,-561.7159 1564.4023,-561.7028 1536.5838,-561.6914 1512.732,-561.6817 1492.542,-561.6734 1475.7084,-561.6665 1461.9263,-561.6609 1450.8904,-561.6564 1442.2956,-561.6529 1435.8368,-561.6502 1431.2089,-561.6483 1428.1066,-561.6471 1426.2249,-561.6463 1425.2587,-561.6459 1424.9027,-561.6458 1424.8526,-561.6457 1405.611,-561.5533 1386.1126,-561.2998 1366.4251,-560.8971 1346.6171,-560.3573 1326.757,-559.6925 1306.9134,-558.9146 1287.1547,-558.0356 1267.5494,-557.0677 1248.1661,-556.0228 1229.0732,-554.9129 1210.3393,-553.7501 1192.0327,-552.5464 1174.2221,-551.3139 1156.9759,-550.0645 1140.3626,-548.8103 1124.4506,-547.5633 1109.3085,-546.3355 1095.0048,-545.1391 1081.608,-543.9859 1069.1859,-542.888 1069.0982,-543.8841"/>
<polygon fill="#000000" stroke="#000000" points="2222.3688,-422.8451 2221.7884,-412.2661 2215.645,-420.898 2222.3688,-422.8451"/>
</g>
<!-- TheEvaluationOptions -->
<g id="node21" class="node">
<title>TheEvaluationOptions</title>
<polygon fill="none" stroke="#000000" points="1083.7622,-448 941.2554,-448 941.2554,-412 1083.7622,-412 1083.7622,-448"/>
<text text-anchor="middle" x="1012.5088" y="-425.8" font-family="Times,serif" font-size="14.00" fill="#000000">TheEvaluationOptions</text>
</g>
<!-- TheEvaluationOptions&#45;&gt;BaseModel -->
<g id="edge28" class="edge">
<title>TheEvaluationOptions&#45;&gt;BaseModel</title>
<polygon fill="#000000" stroke="transparent" points="1063.7786,-412.4701 1073.547,-409.1048 1083.9785,-405.536 1095.0279,-401.7835 1106.6493,-397.8674 1118.7968,-393.8079 1131.4246,-389.6251 1144.4869,-385.3391 1157.9379,-380.97 1171.7316,-376.5378 1185.8222,-372.0628 1200.164,-367.5651 1214.711,-363.0646 1229.4174,-358.5816 1244.2374,-354.1362 1259.1251,-349.7485 1274.0346,-345.4385 1288.9201,-341.2264 1303.7358,-337.1324 1318.4358,-333.1764 1332.9751,-329.3785 1372.6277,-319.1413 1409.5266,-309.5535 1443.9836,-300.5845 1476.3115,-292.2039 1506.8231,-284.3811 1535.8311,-277.0853 1563.6485,-270.2861 1590.588,-263.9529 1616.9627,-258.0548 1643.0853,-252.5614 1669.269,-247.442 1695.8268,-242.6659 1723.0715,-238.2025 1751.3161,-234.0212 1780.8736,-230.0914 1812.0569,-226.3824 1845.1788,-222.8638 1880.5521,-219.5048 1918.4897,-216.275 1959.3061,-213.1435 1971.6506,-211.9713 1983.324,-210.3703 1994.3874,-208.4327 2004.9037,-206.2505 2014.9358,-203.9157 2024.5468,-201.5203 2033.7996,-199.1563 2042.7573,-196.9156 2051.4829,-194.89 2060.0394,-193.1713 2068.49,-191.8513 2076.8977,-191.0218 2085.326,-190.7743 2093.8382,-191.2006 2102.4977,-192.3924 2111.3682,-194.4418 2120.513,-197.4408 2129.9954,-201.4814 2139.8786,-206.6559 2150.2253,-213.056 2157.696,-218.5016 2164.6609,-224.5265 2171.1379,-231.073 2177.1448,-238.0829 2182.6991,-245.498 2187.8184,-253.2601 2192.5203,-261.3111 2196.8225,-269.5926 2200.7427,-278.0466 2204.2985,-286.6147 2207.5075,-295.2387 2210.3874,-303.8605 2212.956,-312.4216 2215.2309,-320.8641 2217.2298,-329.1295 2218.9704,-337.1597 2220.4704,-344.8964 2221.7475,-352.2815 2222.8194,-359.2567 2223.7037,-365.7638 2223.7037,-365.7638 2222.8244,-359.256 2221.7579,-352.2798 2220.4865,-344.8935 2218.9924,-337.1552 2217.2579,-329.123 2215.2652,-320.8553 2212.9966,-312.4101 2210.4342,-303.8457 2207.5604,-295.2201 2204.3573,-286.5916 2200.8072,-278.0183 2196.8922,-269.5584 2192.5946,-261.2701 2187.8966,-253.2115 2182.7803,-245.4409 2177.2279,-238.0163 2171.2215,-230.9961 2164.7434,-224.4384 2157.7756,-218.4015 2150.3007,-212.944 2139.9502,-206.5304 2130.0611,-201.3431 2120.5698,-197.29 2111.4136,-194.2794 2102.5296,-192.2197 2093.8553,-191.019 2085.328,-190.5853 2076.8853,-190.8267 2068.4645,-191.651 2060.0028,-192.966 2051.4374,-194.6795 2042.7053,-196.6995 2033.7435,-198.9339 2024.4889,-201.2907 2014.8786,-203.6781 2004.8495,-206.004 1994.3385,-208.1766 1983.2826,-210.1041 1971.6186,-211.6946 1959.2815,-212.8565 1918.464,-215.9563 1880.5209,-219.157 1845.1412,-222.489 1812.012,-225.9825 1780.8205,-229.6679 1751.2537,-233.5757 1722.9989,-237.7362 1695.7434,-242.1797 1669.1744,-246.9366 1642.9792,-252.0373 1616.8451,-257.512 1590.4594,-263.391 1563.5093,-269.7048 1535.6822,-276.4836 1506.6651,-283.7577 1476.1452,-291.5576 1443.8096,-299.9135 1409.3455,-308.8558 1372.4399,-318.4149 1332.7789,-328.6215 1318.2327,-332.4093 1303.5242,-336.3553 1288.7003,-340.4393 1273.8069,-344.6411 1258.8897,-348.9408 1243.9945,-353.3182 1229.1673,-357.7533 1214.4538,-362.226 1199.9,-366.7163 1185.5515,-371.2039 1171.4544,-375.669 1157.6544,-380.0914 1144.1974,-384.451 1131.1292,-388.7277 1118.4956,-392.9016 1106.3426,-396.9525 1094.716,-400.8603 1083.6616,-404.605 1073.2252,-408.1664 1063.4533,-411.5245 1063.7786,-412.4701"/>
<polygon fill="#000000" stroke="#000000" points="2220.2378,-366.2621 2224.8449,-375.8028 2227.193,-365.4715 2220.2378,-366.2621"/>
</g>
<!-- TheSequenceEvaluationOutput -->
<g id="node22" class="node">
<title>TheSequenceEvaluationOutput</title>
<polygon fill="none" stroke="#000000" points="905.107,-583 714.2078,-583 714.2078,-547 905.107,-547 905.107,-583"/>
<text text-anchor="middle" x="809.6574" y="-560.8" font-family="Times,serif" font-size="14.00" fill="#000000">TheSequenceEvaluationOutput</text>
</g>
<!-- TheSequenceEvaluationOutput&#45;&gt;BaseModel -->
<g id="edge29" class="edge">
<title>TheSequenceEvaluationOutput&#45;&gt;BaseModel</title>
<polygon fill="#000000" stroke="transparent" points="844.6932,-583.5435 848.6586,-585.4239 852.7737,-587.3445 857.0274,-589.2967 861.4097,-591.2723 865.911,-593.2632 870.5214,-595.2614 875.231,-597.2587 880.0301,-599.247 884.9088,-601.2182 889.8573,-603.1642 894.8658,-605.0769 899.9246,-606.9482 905.0237,-608.7699 910.1534,-610.534 915.3039,-612.2323 920.4655,-613.8568 925.6282,-615.3993 930.7824,-616.8517 935.9182,-618.2059 941.0251,-619.4536 957.8168,-623.2679 973.4808,-626.5845 988.1459,-629.4361 1001.9399,-631.8555 1014.9905,-633.875 1027.4255,-635.5274 1039.3726,-636.8452 1050.9593,-637.8609 1062.3132,-638.6072 1073.5619,-639.1167 1084.833,-639.4222 1096.2542,-639.5562 1107.9533,-639.5516 1120.0582,-639.4408 1132.697,-639.2567 1145.9977,-639.0319 1160.0883,-638.7989 1175.097,-638.5904 1191.152,-638.439 1208.3818,-638.3774 1208.4591,-638.3773 1209.0045,-638.3772 1210.4849,-638.3767 1213.3678,-638.3757 1218.1206,-638.3742 1225.2109,-638.3718 1235.1062,-638.3686 1248.2739,-638.3642 1265.1816,-638.3586 1286.2966,-638.3517 1312.0866,-638.3432 1343.0191,-638.333 1379.5614,-638.3209 1422.1812,-638.3069 1471.3458,-638.2906 1527.5228,-638.2721 1591.1797,-638.2511 1662.784,-638.2275 1742.8032,-638.2011 1831.7042,-638.1718 1843.2513,-638.2346 1856.4095,-638.398 1870.9875,-638.6144 1886.7935,-638.836 1903.6357,-639.0148 1921.3224,-639.1031 1939.662,-639.0531 1958.4628,-638.817 1977.5331,-638.3469 1996.6814,-637.5951 2015.716,-636.5138 2034.4453,-635.055 2052.6777,-633.171 2070.2216,-630.814 2086.8856,-627.936 2102.478,-624.4891 2116.8075,-620.4254 2129.6826,-615.6967 2140.9118,-610.2548 2150.3032,-604.0513 2154.7061,-599.9703 2159.0764,-594.7309 2163.4038,-588.4383 2167.6779,-581.1971 2171.8882,-573.1122 2176.0236,-564.2882 2180.0735,-554.8302 2184.0266,-544.8429 2187.8722,-534.4313 2191.5991,-523.7004 2195.1963,-512.7551 2198.6528,-501.7004 2201.9575,-490.6413 2205.0995,-479.6827 2208.0676,-468.9296 2210.8508,-458.4871 2213.4381,-448.4601 2215.8184,-438.9537 2217.9807,-430.0727 2219.9139,-421.9222 2219.9139,-421.9222 2217.9753,-430.0714 2215.8072,-438.9509 2213.4206,-448.4557 2210.8268,-458.4808 2208.0367,-468.9213 2205.0616,-479.672 2201.9126,-490.6281 2198.6007,-501.6844 2195.1371,-512.7361 2191.533,-523.678 2187.7995,-534.4052 2183.9477,-544.8127 2179.9888,-554.7952 2175.9339,-564.2479 2171.7942,-573.0657 2167.581,-581.1433 2163.3056,-588.3756 2158.9796,-594.6574 2154.6147,-599.8834 2150.2228,-603.9487 2140.8438,-610.1352 2129.6257,-615.5626 2116.7598,-620.2783 2102.4379,-624.3296 2086.8519,-627.7643 2070.1935,-630.63 2052.6544,-632.9747 2034.4264,-634.8461 2015.7011,-636.2921 1996.6702,-637.3606 1977.5253,-638.0997 1958.458,-638.5571 1939.66,-638.7807 1921.3228,-638.8186 1903.6381,-638.7186 1886.7974,-638.5287 1870.9922,-638.2968 1856.4141,-638.0708 1843.2544,-637.8986 1831.7052,-637.8282 1742.8032,-637.7989 1662.784,-637.7725 1591.1797,-637.7489 1527.5228,-637.7279 1471.3458,-637.7094 1422.1812,-637.6931 1379.5614,-637.6791 1343.0191,-637.667 1312.0866,-637.6568 1286.2966,-637.6483 1265.1816,-637.6414 1248.2739,-637.6358 1235.1062,-637.6314 1225.2109,-637.6282 1218.1206,-637.6258 1213.3678,-637.6243 1210.4849,-637.6233 1209.0045,-637.6228 1208.4591,-637.6227 1208.3806,-637.6226 1191.1472,-637.6729 1175.0882,-637.8137 1160.0766,-638.0124 1145.9846,-638.2361 1132.6846,-638.4521 1120.0489,-638.6279 1107.9496,-638.7306 1096.2591,-638.7275 1084.8495,-638.5861 1073.5927,-638.2736 1062.3606,-637.7574 1051.0252,-637.0048 1039.4582,-635.9831 1027.5313,-634.6596 1015.1164,-633.0016 1002.0853,-630.9762 988.3099,-628.5508 973.6623,-625.6925 958.0144,-622.3685 941.2393,-618.5464 936.1488,-617.2992 931.0297,-615.9458 925.8913,-614.4941 920.7432,-612.9523 915.5955,-611.3285 910.458,-609.6306 905.3406,-607.867 900.253,-606.0456 895.2053,-604.1746 890.2072,-602.2622 885.2687,-600.3163 880.3994,-598.3452 875.6094,-596.3569 870.9084,-594.3596 866.3062,-592.3614 861.8128,-590.3704 857.438,-588.3947 853.1916,-586.4425 849.0834,-584.5217 845.122,-582.6401 844.6932,-583.5435"/>
<polygon fill="#000000" stroke="#000000" points="2223.3462,-422.6141 2222.1852,-412.083 2216.5255,-421.0395 2223.3462,-422.6141"/>
</g>
<!-- TheSequenceEvaluationOutput&#45;&gt;TheSequenceVariants -->
<g id="edge33" class="edge">
<title>TheSequenceEvaluationOutput&#45;&gt;TheSequenceVariants</title>
<path fill="none" stroke="#000000" stroke-width="2" d="M905.1432,-577.7094C914.4013,-578.9417 923.7256,-580.1827 932.8062,-581.3914"/>
<polygon fill="#000000" stroke="#000000" stroke-width="2" points="932.5639,-584.8899 942.9383,-582.74 933.4876,-577.9511 932.5639,-584.8899"/>
</g>
<!-- TheSequenceEvaluationOutput&#45;&gt;TheBuildOptions -->
<g id="edge32" class="edge">
<title>TheSequenceEvaluationOutput&#45;&gt;TheBuildOptions</title>
<path fill="none" stroke="#000000" stroke-width="2" d="M852.7613,-546.9395C878.3675,-536.2997 911.5204,-522.6792 941.1322,-511 945.5229,-509.2683 950.0738,-507.4956 954.6553,-505.727"/>
<polygon fill="#000000" stroke="#000000" stroke-width="2" points="955.9793,-508.9679 964.061,-502.1168 953.4708,-502.4328 955.9793,-508.9679"/>
</g>
<!-- TheSequenceEvaluationOutput&#45;&gt;TheDrawOptions -->
<g id="edge31" class="edge">
<title>TheSequenceEvaluationOutput&#45;&gt;TheDrawOptions</title>
<path fill="none" stroke="#000000" stroke-width="2" d="M905.1432,-552.2906C918.8465,-550.4667 932.6949,-548.6234 945.6832,-546.8946"/>
<polygon fill="#000000" stroke="#000000" stroke-width="2" points="946.4452,-550.3242 955.8959,-545.5353 945.5216,-543.3854 946.4452,-550.3242"/>
</g>
<!-- TheSequenceEvaluationOutput&#45;&gt;TheEvaluationOptions -->
<g id="edge30" class="edge">
<title>TheSequenceEvaluationOutput&#45;&gt;TheEvaluationOptions</title>
<path fill="none" stroke="#000000" stroke-width="2" d="M827.7913,-546.781C851.896,-523.3871 896.6474,-482.7464 941.1322,-457 943.9415,-455.374 946.8669,-453.812 949.8603,-452.3166"/>
<polygon fill="#000000" stroke="#000000" stroke-width="2" points="951.4287,-455.4469 958.997,-448.0326 948.4569,-449.109 951.4287,-455.4469"/>
</g>
<!-- sequenceService -->
<g id="node23" class="node">
<title>sequenceService</title>
<polygon fill="none" stroke="#000000" points="674.4082,-832 564.8462,-832 564.8462,-796 674.4082,-796 674.4082,-832"/>
<text text-anchor="middle" x="619.6272" y="-809.8" font-family="Times,serif" font-size="14.00" fill="#000000">sequenceService</text>
</g>
<!-- commonio_Service -->
<g id="node24" class="node">
<title>commonio_Service</title>
<polygon fill="none" stroke="#000000" points="872.0215,-886 747.2933,-886 747.2933,-850 872.0215,-850 872.0215,-886"/>
<text text-anchor="middle" x="809.6574" y="-863.8" font-family="Times,serif" font-size="14.00" fill="#000000">commonio_Service</text>
</g>
<!-- sequenceService&#45;&gt;commonio_Service -->
<g id="edge34" class="edge">
<title>sequenceService&#45;&gt;commonio_Service</title>
<polygon fill="#000000" stroke="transparent" points="674.4825,-830.2093 676.4385,-830.7514 678.4053,-831.2965 680.3816,-831.8441 682.366,-832.3938 684.3573,-832.9454 686.354,-833.4983 688.3548,-834.0523 690.3585,-834.607 692.3635,-835.1619 694.3687,-835.7167 696.3727,-836.2711 698.3741,-836.8246 700.3716,-837.377 702.3638,-837.9277 704.3495,-838.4765 706.3272,-839.0229 708.2957,-839.5666 710.2535,-840.1072 712.1995,-840.6444 714.1321,-841.1777 715.2642,-841.49 716.4011,-841.8036 717.5424,-842.1184 718.688,-842.4342 719.8375,-842.7511 720.9907,-843.069 722.1473,-843.3877 723.3071,-843.7073 724.4698,-844.0276 725.6351,-844.3486 726.8027,-844.6701 727.9725,-844.9922 729.144,-845.3148 730.3172,-845.6377 731.4916,-845.961 732.667,-846.2845 733.8432,-846.6081 735.0199,-846.9319 736.1968,-847.2556 737.3737,-847.5794 737.3737,-847.5794 736.2019,-847.2376 735.0301,-846.8959 733.8585,-846.5541 732.6874,-846.2125 731.5171,-845.871 730.3478,-845.5298 729.1797,-845.1889 728.0133,-844.8485 726.8486,-844.5085 725.686,-844.169 724.5258,-843.8302 723.3682,-843.4922 722.2134,-843.1549 721.0618,-842.8184 719.9136,-842.4829 718.7691,-842.1485 717.6285,-841.8151 716.4922,-841.4829 715.3603,-841.1519 714.2331,-840.8223 712.3089,-840.2594 710.3715,-839.6925 708.4221,-839.122 706.4623,-838.5482 704.4932,-837.9715 702.5162,-837.3924 700.5327,-836.8112 698.5439,-836.2283 696.5513,-835.6442 694.5561,-835.0592 692.5597,-834.4737 690.5634,-833.8881 688.5685,-833.3028 686.5764,-832.7182 684.5885,-832.1348 682.606,-831.5528 680.6302,-830.9727 678.6626,-830.3949 676.7044,-829.8198 674.757,-829.2477 674.4825,-830.2093"/>
<polygon fill="#000000" stroke="#000000" points="736.6766,-851.0195 747.2519,-850.3766 738.5839,-844.2843 736.6766,-851.0195"/>
</g>
<!-- settings_Service -->
<g id="node25" class="node">
<title>settings_Service</title>
<polygon fill="none" stroke="#000000" points="863.4109,-832 755.9039,-832 755.9039,-796 863.4109,-796 863.4109,-832"/>
<text text-anchor="middle" x="809.6574" y="-809.8" font-family="Times,serif" font-size="14.00" fill="#000000">settings_Service</text>
</g>
<!-- sequenceService&#45;&gt;settings_Service -->
<g id="edge35" class="edge">
<title>sequenceService&#45;&gt;settings_Service</title>
<path fill="none" stroke="#000000" stroke-width="2" d="M674.3369,-814C696.5911,-814 722.4665,-814 745.5949,-814"/>
<polygon fill="#000000" stroke="#000000" stroke-width="2" points="745.6616,-817.5001 755.6616,-814 745.6616,-810.5001 745.6616,-817.5001"/>
</g>
<!-- SequenceOutputs -->
<g id="node26" class="node">
<title>SequenceOutputs</title>
<polygon fill="none" stroke="#000000" points="676.6006,-721 562.6538,-721 562.6538,-685 676.6006,-685 676.6006,-721"/>
<text text-anchor="middle" x="619.6272" y="-698.8" font-family="Times,serif" font-size="14.00" fill="#000000">SequenceOutputs</text>
</g>
<!-- SequenceOutputs&#45;&gt;BaseModel -->
<g id="edge36" class="edge">
<title>SequenceOutputs&#45;&gt;BaseModel</title>
<polygon fill="#000000" stroke="transparent" points="676.6022,-718.9717 688.4703,-721.9304 701.223,-725.0243 714.7981,-728.2218 729.1348,-731.4921 744.1723,-734.804 759.8498,-738.1267 776.1066,-741.429 792.8819,-744.6801 810.1148,-747.8489 827.7447,-750.9044 845.7108,-753.8156 863.9523,-756.5515 882.4084,-759.0811 901.0185,-761.3735 919.7216,-763.3975 938.4572,-765.1221 957.1644,-766.5165 975.7826,-767.5495 994.251,-768.19 1012.5063,-768.4071 1012.6112,-768.4071 1013.328,-768.4069 1015.2736,-768.4064 1019.0624,-768.4053 1025.3087,-768.4036 1034.6271,-768.4011 1047.6318,-768.3975 1064.9373,-768.3928 1087.158,-768.3867 1114.9083,-768.3792 1148.8025,-768.3699 1189.4551,-768.3588 1237.4805,-768.3457 1293.493,-768.3304 1358.1071,-768.3128 1431.9371,-768.2926 1515.5975,-768.2698 1609.7026,-768.2441 1714.8669,-768.2154 1831.7024,-768.1835 1852.4397,-768.6985 1872.1691,-770.1356 1890.9764,-772.3153 1908.9451,-775.0583 1926.1585,-778.1854 1942.7,-781.517 1958.6529,-784.8737 1974.1006,-788.0762 1989.1265,-790.9447 2003.8138,-793.2998 2018.2457,-794.9616 2032.5056,-795.7503 2046.6763,-795.4862 2060.8407,-793.9892 2075.0813,-791.0798 2089.4808,-786.5785 2104.1217,-780.306 2119.087,-772.0832 2134.4598,-761.7311 2150.3257,-749.0684 2157.5542,-741.458 2164.333,-731.6003 2170.6745,-719.7193 2176.5928,-706.0359 2182.1014,-690.7711 2187.2136,-674.1458 2191.9422,-656.3813 2196.3003,-637.6989 2200.3006,-618.3199 2203.9562,-598.4656 2207.2797,-578.3575 2210.284,-558.2169 2212.982,-538.2653 2215.3865,-518.7242 2217.5102,-499.8149 2219.3661,-481.7589 2220.9668,-464.7777 2222.3252,-449.0927 2223.4542,-434.9253 2224.3664,-422.4971 2224.3664,-422.4971 2223.4474,-434.9248 2222.3107,-449.0915 2220.9437,-464.7756 2219.3337,-481.7557 2217.4681,-499.8104 2215.3341,-518.718 2212.919,-538.2572 2210.2103,-558.2064 2207.1951,-578.3441 2203.8608,-598.4489 2200.1948,-618.2992 2196.1844,-637.6734 2191.817,-656.35 2187.0798,-674.1074 2181.9605,-690.724 2176.4464,-705.9779 2170.5252,-719.6473 2164.185,-731.5103 2157.4144,-741.3446 2150.2003,-748.9316 2134.3436,-761.5727 2118.9795,-771.9068 2104.0271,-780.1119 2089.403,-786.3677 2075.0232,-790.8542 2060.8039,-793.7512 2046.661,-795.2381 2032.5104,-795.4941 2018.2682,-794.6986 2003.8509,-793.0305 1989.175,-790.669 1974.157,-787.7935 1958.7137,-784.5832 1942.7617,-781.2175 1926.2178,-777.876 1908.9987,-774.7382 1891.021,-771.9838 1872.2016,-769.7922 1852.4572,-768.3432 1831.707,-767.8165 1714.8669,-767.7846 1609.7026,-767.7559 1515.5975,-767.7302 1431.9371,-767.7074 1358.1071,-767.6872 1293.493,-767.6696 1237.4805,-767.6543 1189.4551,-767.6412 1148.8025,-767.6301 1114.9083,-767.6208 1087.158,-767.6133 1064.9373,-767.6072 1047.6318,-767.6025 1034.6271,-767.5989 1025.3087,-767.5964 1019.0624,-767.5947 1015.2736,-767.5936 1013.328,-767.5931 1012.6112,-767.5929 1012.5113,-767.5929 994.2704,-767.366 975.8204,-766.716 957.2195,-765.6738 938.5284,-764.2704 919.808,-762.5368 901.1193,-760.504 882.5229,-758.2031 864.0798,-755.665 845.8507,-752.9207 827.8964,-750.0014 810.2778,-746.9379 793.0556,-743.7614 776.2907,-740.5028 760.0438,-737.1932 744.3758,-733.8637 729.3473,-730.5451 715.0194,-727.2686 701.4526,-724.0652 688.7078,-720.9659 676.8444,-718.0014 676.6022,-718.9717"/>
<polygon fill="#000000" stroke="#000000" points="2227.8811,-422.3986 2225.0676,-412.1842 2220.8973,-421.9237 2227.8811,-422.3986"/>
</g>
<!-- SequenceOutputs&#45;&gt;StructureBuildInfo -->
<g id="edge38" class="edge">
<title>SequenceOutputs&#45;&gt;StructureBuildInfo</title>
<path fill="none" stroke="#000000" stroke-width="2" d="M676.8847,-703C753.3794,-703 893.1437,-703 1012.5088,-703 1012.5088,-703 1012.5088,-703 1424.8518,-703 1542.545,-703 1679.389,-703 1760.5952,-703"/>
<polygon fill="#000000" stroke="#000000" stroke-width="2" points="1760.7036,-706.5001 1770.7036,-703 1760.7036,-699.5001 1760.7036,-706.5001"/>
</g>
<!-- SequenceOutputs&#45;&gt;TheSequenceEvaluationOutput -->
<g id="edge37" class="edge">
<title>SequenceOutputs&#45;&gt;TheSequenceEvaluationOutput</title>
<path fill="none" stroke="#000000" stroke-width="2" d="M655.2178,-684.8728C662.9431,-680.5754 670.9597,-675.8293 678.1826,-671 715.9547,-645.7456 756.1746,-612.2234 782.0374,-589.6975"/>
<polygon fill="#000000" stroke="#000000" stroke-width="2" points="784.3722,-592.3053 789.5842,-583.0811 779.7575,-587.0417 784.3722,-592.3053"/>
</g>
<!-- SequenceInputs -->
<g id="node27" class="node">
<title>SequenceInputs</title>
<polygon fill="none" stroke="#000000" points="861.7948,-448 757.52,-448 757.52,-412 861.7948,-412 861.7948,-448"/>
<text text-anchor="middle" x="809.6574" y="-425.8" font-family="Times,serif" font-size="14.00" fill="#000000">SequenceInputs</text>
</g>
<!-- SequenceInputs&#45;&gt;TheSequence -->
<g id="edge40" class="edge">
<title>SequenceInputs&#45;&gt;TheSequence</title>
<path fill="none" stroke="#000000" stroke-width="2" d="M815.694,-411.9411C830.5474,-370.0494 872.7149,-265.2485 941.1322,-205 1063.0291,-97.6573 1270.0381,-97.2591 1368.9717,-104.2347"/>
<polygon fill="#000000" stroke="#000000" stroke-width="2" points="1368.8248,-107.7335 1379.0606,-104.9986 1369.3534,-100.7535 1368.8248,-107.7335"/>
</g>
<!-- SequenceInputs&#45;&gt;BaseModel -->
<g id="edge39" class="edge">
<title>SequenceInputs&#45;&gt;BaseModel</title>
<polygon fill="#000000" stroke="transparent" points="812.3272,-412.0249 813.5969,-403.3531 815.2217,-393.2798 817.2336,-381.9373 819.6646,-369.4611 822.5463,-355.987 825.9105,-341.6504 829.7889,-326.5869 834.2132,-310.9323 839.2152,-294.822 844.8264,-278.3917 851.0786,-261.7771 858.0034,-245.1138 865.6324,-228.5373 873.997,-212.1833 883.1289,-196.1873 893.0595,-180.6848 903.8201,-165.8114 915.4423,-151.7023 927.9573,-138.4928 941.4004,-126.3146 955.1247,-115.3004 968.3059,-105.6147 981.0246,-97.1772 993.3649,-89.9048 1005.411,-83.7144 1017.2477,-78.5226 1028.9595,-74.2462 1040.6317,-70.8023 1052.3491,-68.108 1064.1967,-66.0806 1076.2593,-64.6376 1088.6213,-63.6967 1101.3671,-63.1753 1114.5807,-62.9911 1128.346,-63.0614 1142.7468,-63.3036 1157.867,-63.635 1173.7903,-63.9728 1190.6005,-64.2342 1208.3802,-64.3364 1208.4591,-64.3364 1209.0045,-64.3362 1210.4849,-64.3358 1213.3678,-64.3351 1218.1206,-64.3338 1225.2109,-64.3318 1235.1062,-64.3292 1248.2739,-64.3256 1265.1816,-64.321 1286.2966,-64.3153 1312.0866,-64.3083 1343.0191,-64.2999 1379.5614,-64.29 1422.1812,-64.2785 1471.3458,-64.2651 1527.5228,-64.2499 1591.1797,-64.2327 1662.784,-64.2132 1742.8032,-64.1916 1831.706,-64.1675 1843.2331,-63.985 1856.3985,-63.4917 1871.0054,-62.7601 1886.8583,-61.8627 1903.7616,-60.8719 1921.5197,-59.8603 1939.9367,-58.9002 1958.817,-58.0642 1977.9647,-57.4246 1997.1839,-57.054 2016.2789,-57.0247 2035.0537,-57.4092 2053.3125,-58.28 2070.8594,-59.7094 2087.4982,-61.7698 2103.0331,-64.5335 2117.2679,-68.0727 2130.0065,-72.4593 2141.0528,-77.7651 2150.2115,-84.0614 2156.552,-90.5054 2162.5874,-98.8548 2168.3206,-108.9264 2173.7549,-120.5361 2178.894,-133.4995 2183.7418,-147.6328 2188.3025,-162.752 2192.5803,-178.6733 2196.5794,-195.2128 2200.304,-212.1867 2203.7585,-229.4114 2206.947,-246.7029 2209.8739,-263.8777 2212.5435,-280.752 2214.96,-297.1419 2217.1277,-312.8639 2219.051,-327.7342 2220.734,-341.5691 2222.1812,-354.1848 2223.3967,-365.3977 2223.3967,-365.3977 2222.1873,-354.1842 2220.7469,-341.5676 2219.0714,-327.7317 2217.1562,-312.8601 2214.9969,-297.1367 2212.5892,-280.745 2209.9287,-263.8687 2207.011,-246.6916 2203.8316,-229.3973 2200.3862,-212.1695 2196.6704,-195.1918 2192.6798,-178.6479 2188.4098,-162.7214 2183.8562,-147.596 2179.0143,-133.4551 2173.8797,-120.4822 2168.4475,-108.8608 2162.713,-98.7741 2156.6705,-90.4053 2150.3145,-83.9386 2141.1361,-77.6214 2130.0721,-72.2997 2117.319,-67.9003 2103.0722,-64.35 2087.5275,-61.5758 2070.8804,-59.5052 2053.3264,-58.0657 2035.0615,-57.1847 2016.2812,-56.7899 1997.1814,-56.8088 1977.958,-57.1691 1958.8067,-57.7984 1939.9235,-58.6244 1921.5041,-59.5745 1903.7446,-60.5766 1886.8408,-61.5582 1870.9888,-62.4469 1856.3846,-63.1704 1843.2245,-63.6564 1831.7034,-63.8325 1742.8032,-63.8084 1662.784,-63.7868 1591.1797,-63.7673 1527.5228,-63.7501 1471.3458,-63.7349 1422.1812,-63.7215 1379.5614,-63.71 1343.0191,-63.7001 1312.0866,-63.6917 1286.2966,-63.6847 1265.1816,-63.679 1248.2739,-63.6744 1235.1062,-63.6708 1225.2109,-63.6682 1218.1206,-63.6662 1213.3678,-63.6649 1210.4849,-63.6642 1209.0045,-63.6638 1208.4591,-63.6636 1208.3822,-63.6636 1190.608,-63.5518 1173.8032,-63.2813 1157.8823,-62.9349 1142.7607,-62.5953 1128.354,-62.3452 1114.5777,-62.2674 1101.3473,-62.4447 1088.5785,-62.9601 1076.187,-63.8965 1064.0889,-65.337 1052.2004,-67.3648 1040.438,-70.0628 1028.7183,-73.5138 1016.9581,-77.8006 1005.0741,-83.0055 992.9828,-89.2108 980.6005,-96.4989 967.8433,-104.952 954.6271,-114.6523 940.864,-125.6854 927.3724,-137.8943 914.808,-151.1415 903.1424,-165.2877 892.3436,-180.1969 882.3793,-195.7334 873.2176,-211.7615 864.8263,-228.1456 857.1735,-244.7503 850.2272,-261.4399 843.9555,-278.079 838.3265,-294.5321 833.3083,-310.6637 828.8692,-326.3383 824.9773,-341.4205 821.6007,-355.7746 818.7078,-369.2654 816.2668,-381.7571 814.2459,-393.1143 812.6133,-403.2015 811.3378,-411.8798 812.3272,-412.0249"/>
<polygon fill="#000000" stroke="#000000" points="2219.9441,-366.0414 2224.4428,-375.6337 2226.9079,-365.3296 2219.9441,-366.0414"/>
</g>
<!-- SequenceInputs&#45;&gt;TheSequenceVariants -->
<g id="edge41" class="edge">
<title>SequenceInputs&#45;&gt;TheSequenceVariants</title>
<path fill="none" stroke="#000000" stroke-width="2" d="M823.0592,-448.1992C844.8913,-476.6985 890.7841,-532.0039 941.1322,-565 943.3138,-566.4297 945.582,-567.7992 947.9105,-569.1093"/>
<polygon fill="#000000" stroke="#000000" stroke-width="2" points="946.6441,-572.3943 957.1358,-573.8696 949.8541,-566.1737 946.6441,-572.3943"/>
</g>
<!-- SequenceInputs&#45;&gt;TheSystemSolvationOptions -->
<g id="edge42" class="edge">
<title>SequenceInputs&#45;&gt;TheSystemSolvationOptions</title>
<path fill="none" stroke="#000000" stroke-width="2" d="M828.4355,-411.7992C874.5575,-367.9337 998.5107,-255.0532 1119.8854,-188 1126.3742,-184.4153 1133.3429,-181.096 1140.4177,-178.0607"/>
<polygon fill="#000000" stroke="#000000" stroke-width="2" points="1142.1667,-181.1267 1150.0956,-174.0994 1139.515,-174.6484 1142.1667,-181.1267"/>
</g>
<!-- SequenceInputs&#45;&gt;TheGeometryOptions -->
<g id="edge43" class="edge">
<title>SequenceInputs&#45;&gt;TheGeometryOptions</title>
<path fill="none" stroke="#000000" stroke-width="2" d="M862.059,-416.7013C885.9958,-411.2841 914.8201,-405.6739 941.1322,-403 1004.253,-396.5856 1020.603,-398.4489 1083.8854,-403 1098.4864,-404.0501 1113.9766,-405.7843 1128.8893,-407.7725"/>
<polygon fill="#000000" stroke="#000000" stroke-width="2" points="1128.7182,-411.282 1139.1032,-409.1842 1129.6766,-404.3479 1128.7182,-411.282"/>
</g>
<!-- SequenceInputs&#45;&gt;TheBuildOptions -->
<g id="edge44" class="edge">
<title>SequenceInputs&#45;&gt;TheBuildOptions</title>
<path fill="none" stroke="#000000" stroke-width="2" d="M861.8967,-443.9063C887.5114,-450.7251 918.6486,-459.014 945.9488,-466.2814"/>
<polygon fill="#000000" stroke="#000000" stroke-width="2" points="945.252,-469.7178 955.8159,-468.9081 947.0528,-462.9533 945.252,-469.7178"/>
</g>
<!-- SequenceInputs&#45;&gt;TheDrawOptions -->
<g id="edge45" class="edge">
<title>SequenceInputs&#45;&gt;TheDrawOptions</title>
<path fill="none" stroke="#000000" stroke-width="2" d="M835.9948,-448.3067C861.9462,-465.8377 903.118,-492.3124 941.1322,-511 944.6434,-512.7261 948.2943,-514.4132 952.006,-516.0475"/>
<polygon fill="#000000" stroke="#000000" stroke-width="2" points="950.7395,-519.312 961.3125,-519.9927 953.4717,-512.8672 950.7395,-519.312"/>
</g>
<!-- SequenceInputs&#45;&gt;TheEvaluationOptions -->
<g id="edge46" class="edge">
<title>SequenceInputs&#45;&gt;TheEvaluationOptions</title>
<path fill="none" stroke="#000000" stroke-width="2" d="M861.8967,-430C882.8594,-430 907.5208,-430 930.7509,-430"/>
<polygon fill="#000000" stroke="#000000" stroke-width="2" points="930.9531,-433.5001 940.9531,-430 930.9531,-426.5001 930.9531,-433.5001"/>
</g>
<!-- sequenceEntity -->
<g id="node28" class="node">
<title>sequenceEntity</title>
<polygon fill="none" stroke="#000000" points="478.9572,-698 377.9002,-698 377.9002,-662 478.9572,-662 478.9572,-698"/>
<text text-anchor="middle" x="428.4287" y="-675.8" font-family="Times,serif" font-size="14.00" fill="#000000">sequenceEntity</text>
</g>
<!-- sequenceEntity&#45;&gt;sequenceService -->
<g id="edge50" class="edge">
<title>sequenceEntity&#45;&gt;sequenceService</title>
<path fill="none" stroke="#000000" stroke-width="2" d="M454.2146,-698.0718C487.9978,-721.7485 547.3561,-763.3494 585.0228,-789.7477"/>
<polygon fill="#000000" stroke="#000000" stroke-width="2" points="583.4414,-792.9134 593.6392,-795.7865 587.4589,-787.181 583.4414,-792.9134"/>
</g>
<!-- sequenceEntity&#45;&gt;SequenceOutputs -->
<g id="edge49" class="edge">
<title>sequenceEntity&#45;&gt;SequenceOutputs</title>
<path fill="none" stroke="#000000" stroke-width="2" d="M479.1644,-686.1032C501.6227,-688.8048 528.353,-692.0203 552.4373,-694.9175"/>
<polygon fill="#000000" stroke="#000000" stroke-width="2" points="552.2305,-698.4177 562.5769,-696.1372 553.0666,-691.4678 552.2305,-698.4177"/>
</g>
<!-- sequenceEntity&#45;&gt;SequenceInputs -->
<g id="edge48" class="edge">
<title>sequenceEntity&#45;&gt;SequenceInputs</title>
<path fill="none" stroke="#000000" stroke-width="2" d="M479.0237,-677.4362C543.0902,-673.2045 648.6984,-662.6295 678.1826,-638 714.435,-607.7168 690.11,-578.6426 714.1826,-538 732.811,-506.549 761.2627,-475.8294 782.2639,-455.2449"/>
<polygon fill="#000000" stroke="#000000" stroke-width="2" points="784.865,-457.5989 789.6322,-448.1372 780.005,-452.5609 784.865,-457.5989"/>
</g>
<!-- commonio_Entity -->
<g id="node29" class="node">
<title>commonio_Entity</title>
<polygon fill="none" stroke="#000000" points="678.2381,-629 561.0163,-629 561.0163,-593 678.2381,-593 678.2381,-629"/>
<text text-anchor="middle" x="619.6272" y="-606.8" font-family="Times,serif" font-size="14.00" fill="#000000">commonio_Entity</text>
</g>
<!-- sequenceEntity&#45;&gt;commonio_Entity -->
<g id="edge47" class="edge">
<title>sequenceEntity&#45;&gt;commonio_Entity</title>
<polygon fill="#000000" stroke="transparent" points="479.1596,-667.8394 481.4121,-667.2013 483.6832,-666.5516 485.9703,-665.8908 488.2711,-665.2192 490.5834,-664.5371 492.9051,-663.8448 495.2339,-663.1426 497.5676,-662.4307 499.9041,-661.7095 502.2412,-660.9792 504.5766,-660.2402 506.9082,-659.4927 509.2338,-658.7371 511.5511,-657.9737 513.8581,-657.2026 516.1524,-656.4243 518.4319,-655.639 520.6944,-654.8471 522.9377,-654.0487 525.1597,-653.2442 527.5581,-652.3601 529.9704,-651.4552 532.3943,-650.5309 534.8277,-649.5886 537.2684,-648.6297 539.7141,-647.6556 542.1625,-646.6678 544.6116,-645.6677 547.059,-644.6566 549.5026,-643.636 551.9401,-642.6073 554.3694,-641.572 556.7881,-640.5313 559.1942,-639.4868 561.5852,-638.4399 563.9592,-637.3919 566.3137,-636.3443 568.6467,-635.2985 570.9558,-634.2559 573.2389,-633.2179 573.2389,-633.2179 570.9456,-634.2331 568.6263,-635.2526 566.2832,-636.275 563.9185,-637.299 561.5346,-638.3231 559.1336,-639.346 556.7178,-640.3662 554.2894,-641.3825 551.8506,-642.3933 549.4038,-643.3973 546.9511,-644.3931 544.4948,-645.3793 542.0372,-646.3545 539.5804,-647.3173 537.1267,-648.2663 534.6784,-649.2001 532.2378,-650.1174 529.807,-651.0167 527.3883,-651.8966 524.9839,-652.7558 522.7569,-653.537 520.5086,-654.312 518.241,-655.0805 515.9566,-655.8421 513.6573,-656.5966 511.3456,-657.3437 509.0234,-658.0832 506.6931,-658.8147 504.3568,-659.5381 502.0168,-660.253 499.6752,-660.9591 497.3342,-661.6562 494.996,-662.3441 492.6629,-663.0223 490.337,-663.6908 488.0204,-664.3491 485.7155,-664.997 483.4244,-665.6343 481.1493,-666.2606 478.8919,-666.8759 479.1596,-667.8394"/>
<polygon fill="#000000" stroke="#000000" points="574.7638,-636.3694 582.4099,-629.0354 571.8591,-630.0004 574.7638,-636.3694"/>
</g>
<!-- sequenceTransactionSchema -->
<g id="node30" class="node">
<title>sequenceTransactionSchema</title>
<polygon fill="none" stroke="#000000" points="295.6372,-644 118.2312,-644 118.2312,-608 295.6372,-608 295.6372,-644"/>
<text text-anchor="middle" x="206.9342" y="-621.8" font-family="Times,serif" font-size="14.00" fill="#000000">sequenceTransactionSchema</text>
</g>
<!-- sequenceTransactionSchema&#45;&gt;sequenceEntity -->
<g id="edge52" class="edge">
<title>sequenceTransactionSchema&#45;&gt;sequenceEntity</title>
<path fill="none" stroke="#000000" stroke-width="2" d="M280.9966,-644.0563C309.21,-650.9347 341.0043,-658.6861 367.8249,-665.2249"/>
<polygon fill="#000000" stroke="#000000" stroke-width="2" points="367.2983,-668.699 377.8428,-667.6672 368.9564,-661.8982 367.2983,-668.699"/>
</g>
<!-- commonio_TransactionSchema -->
<g id="node31" class="node">
<title>commonio_TransactionSchema</title>
<polygon fill="none" stroke="#000000" points="525.2151,-644 331.6423,-644 331.6423,-608 525.2151,-608 525.2151,-644"/>
<text text-anchor="middle" x="428.4287" y="-621.8" font-family="Times,serif" font-size="14.00" fill="#000000">commonio_TransactionSchema</text>
</g>
<!-- sequenceTransactionSchema&#45;&gt;commonio_TransactionSchema -->
<g id="edge51" class="edge">
<title>sequenceTransactionSchema&#45;&gt;commonio_TransactionSchema</title>
<polygon fill="#000000" stroke="transparent" points="295.7482,-626.5 297.0212,-626.4753 298.2966,-626.4505 299.5745,-626.4257 300.8545,-626.4009 302.1366,-626.376 303.4205,-626.3511 304.7062,-626.3261 305.9935,-626.3011 307.2822,-626.2761 308.5722,-626.2511 309.8633,-626.226 311.1553,-626.2009 312.4481,-626.1758 313.7416,-626.1507 315.0355,-626.1256 316.3298,-626.1005 317.6242,-626.0754 318.9186,-626.0502 320.2129,-626.0251 321.5069,-626 321.5069,-626 320.2129,-625.9749 318.9186,-625.9498 317.6242,-625.9246 316.3298,-625.8995 315.0355,-625.8744 313.7416,-625.8493 312.4481,-625.8242 311.1553,-625.7991 309.8633,-625.774 308.5722,-625.7489 307.2822,-625.7239 305.9935,-625.6989 304.7062,-625.6739 303.4205,-625.6489 302.1366,-625.624 300.8545,-625.5991 299.5745,-625.5743 298.2966,-625.5495 297.0212,-625.5247 295.7482,-625.5 295.7482,-626.5"/>
<polygon fill="#000000" stroke="#000000" points="321.6053,-629.5001 331.6052,-626 321.6052,-622.5001 321.6053,-629.5001"/>
</g>
<!-- projectio_CbProject -->
<g id="node32" class="node">
<title>projectio_CbProject</title>
<polygon fill="none" stroke="#000000" points="492.6807,-590 364.1767,-590 364.1767,-554 492.6807,-554 492.6807,-590"/>
<text text-anchor="middle" x="428.4287" y="-567.8" font-family="Times,serif" font-size="14.00" fill="#000000">projectio_CbProject</text>
</g>
<!-- sequenceTransactionSchema&#45;&gt;projectio_CbProject -->
<g id="edge53" class="edge">
<title>sequenceTransactionSchema&#45;&gt;projectio_CbProject</title>
<path fill="none" stroke="#000000" stroke-width="2" d="M280.9966,-607.9437C304.5455,-602.2025 330.5892,-595.8531 354.1531,-590.1083"/>
<polygon fill="#000000" stroke="#000000" stroke-width="2" points="355.1992,-593.4558 364.0856,-587.6868 353.5411,-586.655 355.1992,-593.4558"/>
</g>
<!-- Transaction -->
<g id="node33" class="node">
<title>Transaction</title>
<polygon fill="none" stroke="#000000" points="82.1242,-617 -.0414,-617 -.0414,-581 82.1242,-581 82.1242,-617"/>
<text text-anchor="middle" x="41.0414" y="-594.8" font-family="Times,serif" font-size="14.00" fill="#000000">Transaction</text>
</g>
<!-- Transaction&#45;&gt;sequenceTransactionSchema -->
<g id="edge55" class="edge">
<title>Transaction&#45;&gt;sequenceTransactionSchema</title>
<path fill="none" stroke="#000000" stroke-width="2" d="M82.4752,-605.7436C90.4242,-607.0373 99.0585,-608.4426 107.9483,-609.8895"/>
<polygon fill="#000000" stroke="#000000" stroke-width="2" points="107.6385,-613.385 118.0709,-611.537 108.763,-606.4759 107.6385,-613.385"/>
</g>
<!-- commonio_Transaction -->
<g id="node34" class="node">
<title>commonio_Transaction</title>
<polygon fill="none" stroke="#000000" points="281.4034,-590 132.465,-590 132.465,-554 281.4034,-554 281.4034,-590"/>
<text text-anchor="middle" x="206.9342" y="-567.8" font-family="Times,serif" font-size="14.00" fill="#000000">commonio_Transaction</text>
</g>
<!-- Transaction&#45;&gt;commonio_Transaction -->
<g id="edge54" class="edge">
<title>Transaction&#45;&gt;commonio_Transaction</title>
<polygon fill="#000000" stroke="transparent" points="82.5555,-592.7499 84.394,-592.4273 86.2555,-592.1007 88.1388,-591.7702 90.0427,-591.4361 91.9662,-591.0985 93.9081,-590.7578 95.8671,-590.414 97.8422,-590.0674 99.8322,-589.7182 101.8358,-589.3666 103.852,-589.0128 105.8796,-588.657 107.9173,-588.2994 109.9641,-587.9403 112.0189,-587.5797 114.0803,-587.218 116.1473,-586.8553 118.2186,-586.4918 120.2932,-586.1277 122.3699,-585.7633 122.3699,-585.7633 120.2849,-586.0763 118.2019,-586.3889 116.1222,-586.701 114.0468,-587.0125 111.9771,-587.3231 109.9141,-587.6327 107.859,-587.9412 105.813,-588.2482 103.7773,-588.5538 101.753,-588.8576 99.7412,-589.1595 97.7433,-589.4594 95.7602,-589.757 93.7933,-590.0522 91.8436,-590.3448 89.9123,-590.6347 88.0006,-590.9216 86.1097,-591.2054 84.2408,-591.4859 82.3949,-591.7629 82.5555,-592.7499"/>
<polygon fill="#000000" stroke="#000000" points="123.1549,-589.1817 132.4628,-584.1206 122.0304,-582.2726 123.1549,-589.1817"/>
</g>
</g>
</svg>
